<?xml version="1.0"?>
<svg xmlns="http://www.w3.org/2000/svg" version="1.2" baseProfile="tiny" width="800" height="880" viewBox="0 0 800 880" stroke-linecap="round" stroke-linejoin="round">
<g id="ao">
<path d="M 72.69 1.57 74.76 2.4 77.3 1.77 79.25 3.64 80.41 6.73 81.66 8.15 84.21 10.18 88.44 15.23 91.43 16.72 90.9 18.56 88.59 19.4 75.95 22.34 74 23.45 72.19 26.01 71.63 28.95 71.03 29.73 67.17 32.2 66.01 35.33 64.43 35.86 61.95 36.05 60.14 40.23 57.74 41.76 52.33 43.63 50.91 43.75 50.68 45.62 51.29 46.57 53.44 47.32 54.54 48.93 52.93 50.21 55.04 50.49 55.08 82.97 55.02 86.97 44.47 86.87 38.97 87.65 35.85 89.37 32.71 84.08 31.77 80 33.25 75.92 34.04 75.19 36.37 74.6 37.24 73.11 37.24 71.09 36.08 67.98 34.94 65.71 33.33 61.4 33.37 59.66 30.81 55.18 30.32 52.11 26.78 47.92 23.78 43.17 23.79 42.48 26.66 43.18 27.5 45.07 28.76 45.36 29.81 44.69 31.16 42.43 30.82 40.59 29.06 41.05 28.97 43.35 28.13 43.48 27.42 41.51 25.94 41.97 23.45 40.76 30.71 34.6 32.41 31.87 34.37 25.27 35.43 24.97 36.62 26.08 37.44 27.58 39.92 26.5 42.1 26.27 43.69 25.13 46.38 19.8 46.69 18.46 46.61 15.7 47.21 14.8 49.92 14.93 54.31 13.5 61.45 12.19 63.17 11.08 64.57 8.48 65.47 7.45 67.69 5.95 68.56 4.91 69.81 1.89 71.34 1 72.69 1.57 Z" id="1"/>
<path d="M 665.23 759.27 666.94 761.34 669.18 764.83 667.71 765.73 668.34 768.31 669.62 769.63 669.87 772.06 673.07 773.02 671.81 775.78 671.42 778.06 673.18 781.58 673.23 783.61 675.16 784.17 676.04 787.07 681.58 791.44 682.45 791.73 684.99 790.85 686.04 791.68 687.76 791.96 690.27 795.52 693.1 797.17 697.77 804.31 698.45 806.12 699.94 807.49 701.98 808.1 702.8 808.92 702.92 810.56 704.4 811.4 708.24 812.9 712.02 816.55 714.23 819.95 714.95 822.95 716.39 824.6 718.39 825.63 720.96 827.86 722.69 828.96 726.58 830.58 730.58 831.9 733.27 834.69 734.15 837.15 735.37 839.07 738.49 842.02 741.34 843.08 742.01 843.77 742.1 846.73 744 847.83 747.31 847.29 749.39 847.46 752.6 849.09 755.29 851.69 754.83 852.61 755.25 854.27 736.72 857.76 723.57 860.25 697.27 865.23 681.11 868.21 664.95 871.18 648.79 874.15 627.99 877.98 626.42 878.19 625.37 876.87 623.45 875.96 619.78 874.71 616.86 873.16 615.82 872.91 611.09 873.11 608.92 873.84 607.87 873.39 597.31 876.14 595.65 877.1 595.08 878.19 591.05 879.27 589.39 879.4 588 878.19 584.97 876.96 584 877.8 581.88 877.18 580.38 876.11 575.51 876.01 573.89 876.43 571.21 874.71 569 873.65 565.65 870.58 564.05 869.92 562.38 870.32 559.12 868.03 556.08 868.47 555.39 868.03 553.15 869.83 551.63 869.22 549.91 869.14 545.2 870.34 539.68 870.68 536.8 869.83 534.38 868.51 524.21 868.51 522.73 870.32 518.88 869.2 517.72 867.57 516.39 867.25 511.25 868.19 500.21 868.33 489.98 865.4 488.96 864.76 486.08 864.96 484.16 864.58 482.05 864.84 479.85 865.67 474.4 865.94 465.99 864.45 460.25 861.7 457.75 861.13 455.82 859.07 451.88 855.04 450.07 854.07 449.12 852.9 448.58 851.29 445.22 848.61 444.16 847.45 441.95 843.33 440.41 842.89 439.05 839.66 437.89 838.09 417.41 838.04 400.9 838.04 384.38 838.03 362.25 838.03 362.47 827.17 359.44 813.16 358.85 806.63 358.92 802.4 359.42 798.21 360.16 795.97 362.95 789.84 364.25 784.49 368.33 779.69 370.21 775.97 371.16 772.12 370.87 764.28 369.19 751.86 368.98 743.74 368.44 741.76 367.41 739.85 363.35 736.09 355.05 721.69 353.33 720.16 349.78 717.78 348.62 716.26 347.79 713.18 346.59 713.61 345.58 711.68 342.95 711.35 339.94 708.83 338.68 708.26 339.56 706.98 336.68 704.96 334.32 703.72 334.72 702.54 333.95 700.15 331.85 699.64 329.81 697.46 330.21 695.34 328.05 694.68 325.26 691.5 324.53 689.35 325.71 688.22 325.2 686.14 322.33 682.31 321.8 679.91 322.37 676.3 321.45 673.46 318.76 669.82 319.89 667.25 318.61 665.74 316.57 665.49 317.46 664.13 315.79 663.85 312.93 661.59 312.23 660.15 312.25 654.76 312.48 653.23 312.23 649.86 312.38 647.4 310.6 642.87 309.62 637.06 310.92 635.19 311.32 631.5 311.86 629.25 310.79 625.74 310.61 624.23 311.02 621.91 310.38 620.45 312.35 619.78 318.3 620.03 321.18 619.75 325.41 618.34 328.48 619.13 330.63 620.55 333.35 621.29 338.36 619.13 341.28 619.68 343.02 621.35 345.04 624.53 346.36 629.05 347 630.44 349.81 632.87 353.22 634.91 355.39 635.8 359.21 638.42 360.92 639.23 363.65 639.86 364.12 637.84 366.03 635.24 366.61 633.03 366.45 630.7 367.15 629.03 370.24 626.95 372.31 624.63 374.25 621.73 376.75 620.41 380.03 620.47 382.63 619.4 386 619.19 388.82 617.25 390.17 616.7 394.43 613.27 396.25 610.21 396.13 604.32 395.63 601.36 396.35 600.08 401.79 598.83 403.86 597.07 404.93 594.71 405.66 592.25 407.68 592.97 422.58 601.03 424.63 601.52 427.83 601.32 430.1 601.75 438.34 605.48 444.41 607.34 448.48 610.55 450.17 611.16 451.57 613.2 453.92 614.77 455.53 616.52 456.24 618.89 458.86 622.57 459.45 624.14 458.86 625.38 460.6 630.74 460.17 632 460.46 634.08 461.74 636.86 462.7 638.07 463.31 639.84 464.64 641.27 465.04 642.61 466.46 644.49 468.83 645.52 469.69 645.47 474.2 643.89 478.91 643.9 483.3 644.87 484.57 644.29 484.98 643.29 484.26 640.41 484.64 637.83 487.36 636.1 489.17 635.97 491.25 636.46 494.2 637.75 499.77 638.85 505.04 638.18 507.07 638.44 509.75 642.02 512.52 644.62 513.45 647.67 516.35 651.58 517.01 653.9 518.01 655.17 519.84 656.37 521.45 658.53 523.07 659.84 526.11 663.23 529.74 666.05 530.88 667.51 532.66 669.02 534.11 669.42 536.36 670.91 538.06 673.34 540.6 675.3 543.12 678.14 548.11 680.81 551.32 681.79 553.57 682.96 554.93 683.24 559.47 683.03 564.43 683.9 567.23 683.15 573.17 683.34 575.5 681.97 578.49 682.28 579.9 681.48 581.44 681.62 584.5 683.38 586.86 684.15 589.3 684.48 591.41 683.02 592.86 683.6 594.83 685.18 595.9 685.38 597.21 684.48 598.57 686.23 605.26 693.18 606.59 695.24 608.25 697.04 608.72 698.11 610.31 697.55 611.36 698.59 612.64 701.01 615.45 700.26 616.99 701.84 618.92 705.62 618.92 707.42 620.63 708.74 622.69 709.63 623.71 711.59 626.17 711.41 627.05 712.28 628.34 715.18 629.03 720.2 629.96 721.51 632.78 722.42 635.23 726.23 636.06 729.08 637.98 731.54 639.19 733.58 640.26 736.96 641.95 738.62 645.78 738.64 647.58 739.2 648.47 741.61 650.52 742.38 652.08 746.27 653.78 748.29 655.4 752.36 656.85 753.92 660.38 755.3 664.14 757.96 665.23 759.27 Z" id="2"/>
<path d="M 665.23 759.27 664.14 757.96 660.38 755.3 656.85 753.92 655.4 752.36 653.78 748.29 652.08 746.27 650.52 742.38 648.47 741.61 647.58 739.2 645.78 738.64 641.95 738.62 640.26 736.96 639.19 733.58 637.98 731.54 636.06 729.08 635.23 726.23 632.78 722.42 629.96 721.51 629.03 720.2 628.34 715.18 627.05 712.28 626.17 711.41 623.71 711.59 622.69 709.63 620.63 708.74 618.92 707.42 618.92 705.62 616.99 701.84 615.45 700.26 612.64 701.01 611.36 698.59 610.31 697.55 608.72 698.11 608.25 697.04 606.59 695.24 605.26 693.18 598.57 686.23 597.21 684.48 595.9 685.38 594.83 685.18 592.86 683.6 591.41 683.02 589.3 684.48 586.86 684.15 584.5 683.38 581.44 681.62 579.9 681.48 578.49 682.28 575.5 681.97 573.17 683.34 567.23 683.15 564.43 683.9 559.47 683.03 554.93 683.24 553.57 682.96 551.32 681.79 548.11 680.81 543.12 678.14 540.6 675.3 538.06 673.34 536.36 670.91 534.11 669.42 532.66 669.02 530.88 667.51 529.74 666.05 526.11 663.23 523.07 659.84 521.45 658.53 519.84 656.37 518.01 655.17 517.01 653.9 516.35 651.58 513.45 647.67 512.52 644.62 509.75 642.02 507.07 638.44 505.04 638.18 499.77 638.85 494.2 637.75 491.25 636.46 489.17 635.97 487.36 636.1 484.64 637.83 484.26 640.41 484.98 643.29 484.57 644.29 483.3 644.87 478.91 643.9 474.2 643.89 469.69 645.47 468.83 645.52 466.46 644.49 465.04 642.61 464.64 641.27 463.31 639.84 462.7 638.07 461.74 636.86 460.46 634.08 460.17 632 460.6 630.74 458.86 625.38 459.45 624.14 458.86 622.57 456.24 618.89 455.53 616.52 453.92 614.77 451.57 613.2 450.17 611.16 448.48 610.55 444.41 607.34 438.34 605.48 430.1 601.75 427.83 601.32 424.63 601.52 422.58 601.03 407.68 592.97 405.66 592.25 405.15 589.18 406.34 585.38 405.28 580.78 407.16 578.25 409.25 576.94 412.1 575.76 413.26 574.7 413.62 573.02 413.12 570.24 411.63 566.53 411.31 565.07 412.46 562.15 412.48 560.96 415.4 558.8 419.7 553.08 420.01 551.15 418.62 546.53 419.01 545.19 420.55 544.37 426.84 539.28 427.94 538.01 428.57 534.78 429.31 533.11 433.39 528.72 435.29 525.84 435.71 524.69 435.52 522.95 436.54 520.61 442.07 515.28 443.55 514.28 447.02 512.82 451.02 509.78 454.44 507.88 455.84 505.6 455.21 504.01 455.4 502.51 458.5 499.22 460.72 497.88 463.36 494.84 464.64 491.88 464.47 490.48 463.29 487.96 463.26 486.27 463.9 484.55 465.33 482.62 467.7 478.4 470.54 476.48 471.12 474.72 470.91 472.11 471.65 471.42 474.78 470.97 477.21 469.02 477.95 467.05 478.41 463.85 479.49 460.98 481.88 457.89 483.78 456.22 485.22 455.96 488.32 454.93 491.18 452.59 492.79 452.53 494.76 453.23 498.83 453.06 502.43 451.23 507.81 446.79 508.81 444.5 509.65 443.56 513.27 443.08 515.89 444.92 519.09 446.31 521.2 446.28 523.63 445.54 526.38 443.26 527.31 442.86 529.73 443.88 531.08 445.74 532.95 445.97 533.81 445.46 535.4 443.48 539.58 443.5 541.89 444.73 544.25 444.5 547.9 440.46 548.86 440.05 553.2 442.16 556.2 443.03 557.96 444.63 561.3 445.26 563.7 444.41 567.14 446.23 569.87 448.54 573.4 449 574.08 450.12 578.03 451.36 581.4 453.21 583.72 453.15 584.76 454.74 585.6 455.16 587.96 455.12 590.61 456.03 593.43 456.31 595.82 456.87 601.27 457.17 604.16 456.96 604.42 455.82 604.07 453.57 607.77 451.39 609.69 451.48 611.28 450.78 612.87 448.52 615.11 446.83 617.05 444.27 620.56 443.54 623.91 441.88 626.6 441.27 628.04 440.38 632.19 439.64 633.34 437.94 635.85 437.33 636.84 438.11 640.11 438.16 646.71 435.13 647.07 433.03 646.8 430.82 645.32 430.1 644.02 427.89 643.86 426.08 644.64 424.67 644.69 422.59 645.28 419.38 647.3 417 649.88 414.64 649.67 410.97 650.38 407.69 651.1 405.74 653.06 402.79 654.87 402.51 658.78 402.7 669.38 401.7 671.57 400.26 675.19 400.23 678.6 401.11 681.78 402.57 683.74 402.48 686.14 401.64 686.24 405.26 687.29 406.93 686.84 407.52 687.03 409.99 686.21 411.77 683.39 412.42 680.69 413.52 678.04 415.67 676.93 417.09 678.9 423.64 678.9 426.1 680.26 427.41 680.48 428.53 681.97 431.63 682.72 437.32 682.5 440.03 681.57 442.66 683.21 442.58 684.42 441.84 687.24 438.85 688.18 438.2 694.63 436.05 696.5 434.48 698.53 429.33 700.89 428.99 708.19 431.89 710.64 432.58 713.13 432.83 715.48 432.42 719.67 429.95 721.21 430.01 724.49 431.81 728.03 432.9 731.81 433.15 743.34 431.22 754.71 424.99 757.42 424.23 760.03 424.08 762.53 424.29 771.98 426.88 776.66 426.84 779.11 427.12 781.78 427.95 784.36 428.43 786.53 427.65 787.45 425.6 788.45 424.43 790.43 423.08 791.76 418.96 792.97 418.37 793.41 421.53 795.31 425.46 794.66 427.85 794.71 431.42 794.43 433.9 796.05 435 795.79 444.17 796.16 445.81 799 452.03 798.42 453.67 795.71 456.18 795.69 460.3 793.63 463.77 792.48 466.34 792.14 469.24 793.86 473.27 794.33 480.31 792.94 483.45 792.12 500.77 792.46 503.66 793.86 505.65 795.49 507.33 796.15 508.95 796.42 512.89 797.05 515.79 796.34 517.99 791.25 525.3 790.47 527.16 788.09 536.4 786.84 539.3 786.41 541.85 787 543.91 788.31 545.71 791.82 549.25 793.25 551.1 794.35 553.14 795.11 555.48 769.02 555.48 753.01 555.48 737 555.48 721 555.48 696.99 555.48 680.99 555.48 664.97 555.48 664.99 574.88 665 594.3 665.01 613.7 665.03 642.82 665.05 662.23 665.06 681.64 665.07 701.05 665.07 726.04 665.02 748.66 665.08 757.87 665.23 759.27 Z" id="3"/>
<path d="M 56.64 591.9 59.97 590 61.78 589.78 67.64 590.88 70.81 591.84 75.37 592.52 78.16 594.44 79.68 594.83 81.48 594.47 88.43 591.77 89.56 591.16 91.51 589.23 93.2 588.98 105.14 591.59 106.05 592.67 106.13 593.78 105.21 598.19 106.45 601.15 108.77 604.14 111.3 608.33 112.54 608.96 115.7 608.64 121.04 610.1 123.06 609.92 124.54 613.13 126.53 615.58 126.91 617.04 126.24 619.61 125.19 621.48 124.35 625.09 126.06 630.69 125.65 632.91 125.92 634.15 127.2 635.76 129.56 637.65 130.55 647.99 127.3 653.8 126 660.33 124.7 663.33 121.64 666.81 109.74 674.86 108.4 675.9 105.79 676.87 104.56 678.25 103.86 680.01 104.32 684.67 104.21 685.73 102.28 689.01 102.26 690.32 104.84 694.52 104.29 696.5 101.87 697.87 100.9 698.95 100.93 700.1 101.89 700.97 104.81 701.22 106.09 701.79 107.1 704.67 108.16 705.65 109.51 705.63 112.38 704.12 113.45 705.07 113.8 706.35 114.14 710.23 114.9 711.77 117.44 713.95 119.63 714.97 121.83 718.38 122.16 731.42 124.67 737.01 124.07 740.34 119.63 748.21 118.56 751.7 118.74 754.59 120.32 758.47 120.62 760.53 119.54 763.19 117.66 764.57 113.45 769.26 109.65 771.88 108.46 771.46 107.61 772.82 105.23 773.72 103.96 775.25 101.31 776.2 99.68 778.67 102.02 780.92 102.63 783.06 102.09 785.17 101.06 786.74 98.23 788.73 96.14 791.22 95.99 792.84 96.65 794.56 99.37 797.87 106.32 804.72 108.14 807.84 108.97 810.97 106.55 811.06 103.91 812.04 101.04 811.56 99.45 810.23 98.6 810.67 97.4 809.83 94.53 810.39 85.65 811.83 84.41 813.35 79.42 814.9 78.48 816.99 75.33 818.48 74.34 819.93 69.94 821.71 66.58 824.1 63.26 824.9 60.38 827.31 58 828.15 55.73 827.65 51.95 827.35 49.2 826.08 46.73 827.17 42.56 827.03 37.92 827.46 37.22 825.98 34.21 824.38 33.7 822.95 32.69 822.4 31.3 823.03 28.42 821.98 24.15 822.57 21.2 823.41 18.56 824.6 15.31 826.52 15.04 827.02 11.83 828.17 10.56 829.98 9.21 829.97 7.23 828.78 6.37 827.74 6.75 823.62 6.79 815.1 7.61 809.57 8.12 804.57 7.36 800.01 7.36 798.06 8.5 797.75 8.82 800.49 9.65 801.65 10.73 798.91 10.55 793.96 10.9 792.31 10.3 786.19 10.82 779.44 8.07 755.01 8.41 752.71 9.86 749.79 8.4 746.82 5.33 742.16 5.26 739.38 6.31 735.64 9.73 733.72 10.59 735.21 12.26 735.29 15.51 732.27 16.27 730.42 16.51 727.73 17.82 726.2 21.78 723.94 22.62 722.46 22.84 720.59 24.13 715.75 24.89 714.02 24.22 712.32 25.29 706.77 25.92 699.19 26.83 697.37 29.05 695.31 31.05 695.71 31.65 695.04 31.88 692.83 31.49 691.96 29.53 691.6 30.33 688.19 32.02 684.32 32.63 681.19 34.56 679.16 34.92 678.29 35.67 673.45 37.46 672.79 38.57 670.17 39.85 668.12 39.44 664.61 41.14 657.62 41.55 652.47 42.88 649.97 43.63 647.7 44.32 643.43 44.53 639.3 44.32 637.2 42.59 631.89 44.76 630.64 45.16 628.4 43.46 625.73 44.49 624.09 44.82 622.72 46.11 621.2 46.96 618.33 48.23 616.01 48.52 612.74 49.05 611.97 51.8 611.02 53.57 611.87 54.65 610.46 55.07 608.17 55.54 601.44 55.31 595.11 56.64 591.9 Z M 4.63 788.41 4.69 790.87 5.39 793.18 3.99 792.7 3.1 790.81 1 784.47 1.13 782.7 3.1 780.81 4.24 781.17 4.63 785.76 4.63 788.41 Z" fill-rule="evenodd" id="4"/>
<path d="M 328.05 694.68 330.21 695.34 329.81 697.46 331.85 699.64 333.95 700.15 334.72 702.54 334.32 703.72 336.68 704.96 339.56 706.98 338.68 708.26 339.94 708.83 342.95 711.35 345.58 711.68 346.59 713.61 347.79 713.18 348.62 716.26 349.78 717.78 353.33 720.16 355.05 721.69 363.35 736.09 367.41 739.85 368.44 741.76 368.98 743.74 369.19 751.86 370.87 764.28 371.16 772.12 370.21 775.97 368.33 779.69 364.25 784.49 362.95 789.84 360.16 795.97 359.42 798.21 358.92 802.4 358.85 806.63 359.44 813.16 362.47 827.17 362.25 838.03 384.38 838.03 400.9 838.04 417.41 838.04 437.89 838.09 439.05 839.66 440.41 842.89 441.95 843.33 444.16 847.45 445.22 848.61 448.58 851.29 449.12 852.9 450.07 854.07 451.88 855.04 455.82 859.07 452.94 857.13 448.42 853.3 448.53 851.74 447.29 850.64 445.25 850.58 443.12 847.76 443.2 846.68 440.67 844.27 439.59 844.13 439.2 841.84 435.78 838.08 408.68 838.05 382.99 838.07 362.09 838.08 341.77 838.07 323.61 838.08 309.62 838.1 283.57 838.11 269.11 838.15 249.37 838.14 231.55 838.14 219 838.17 199.35 838.19 177.01 838.19 165 838.21 164.78 839.39 162.18 839.76 159.51 839.33 156.58 840.26 152.96 839.41 149.84 840.26 147.4 839.27 144.44 835.46 143.64 834.78 131.39 828.22 125.74 823.76 120.26 820.83 120.88 818.99 119.39 817.07 118.54 814.53 116.24 813.1 113.56 812.58 111.29 811.07 108.97 810.97 108.14 807.84 106.32 804.72 99.37 797.87 96.65 794.56 95.99 792.84 96.14 791.22 98.23 788.73 101.06 786.74 102.09 785.17 102.63 783.06 102.02 780.92 99.68 778.67 101.31 776.2 103.96 775.25 105.23 773.72 107.61 772.82 108.46 771.46 109.65 771.88 113.45 769.26 117.66 764.57 121.76 768.08 123.27 769.73 126.35 772.19 127.84 772.13 131.75 770.67 134.2 769.45 137.44 766.72 142.49 760.47 144.3 758.64 146.09 758.09 147.64 758.49 149.99 760.65 151.85 761.42 154.41 760.01 156.54 757.37 158.65 755.83 161.68 755.16 167.43 753.18 174.15 749.55 175.37 748.69 183 740.76 185.02 739.37 189.38 739.81 193.93 739.51 196.92 739.8 205.75 741.9 212.92 744.19 215.69 746.06 217.32 748.53 218.03 751.31 223.7 752.32 226.33 751.07 228.04 748.14 231.42 744.18 236.8 733.66 239.82 729.96 245.05 720.97 250.22 715.41 254.92 712.72 256.74 712.16 261.25 709.93 263.13 709.49 269.27 709.06 272.93 710.13 283.9 710.25 288.58 709.45 293.55 709.53 294.96 708.71 302.72 700.11 304.17 698.06 307.35 696.23 313.2 694.22 317.49 693.97 320.6 694.53 328.05 694.68 Z" id="5"/>
<path d="M 200.01 96.91 201.15 99.66 205.86 106.69 206.72 108.82 208.28 115.05 209.07 117.2 213.4 121.56 212.99 123.54 210.64 126.73 208.44 128.52 205.49 133.07 202.9 136.61 201.85 139.16 200.91 139.87 196.9 141.83 194.33 142.72 190.48 143.43 185.48 143.45 183.18 146.55 178.39 148.5 173.71 148.22 172.41 148.74 169.81 150.65 167.25 154.48 166.6 156.53 166 157.03 160.28 159.82 153.99 161.46 150.98 163.06 150.29 164 148.66 164.97 147.33 166.44 145.98 166.73 140.97 166.69 138.04 167.68 139.91 171.22 141.6 176.04 142.74 177.91 146.2 181.61 146.12 182.99 143.01 187.53 142.41 189.26 142.4 191.51 144.22 195.44 145.25 196.94 148.21 200.21 147.3 201.87 145.84 203.52 144.28 204.16 141.21 204.64 140.54 205.53 139.3 208.92 133.95 212.02 132.86 212.33 129.78 212.42 126.55 214.15 119.14 216.3 116.11 216.18 112.47 213.76 108.85 214.21 106.56 215.08 104.58 217.08 102.33 216.44 99.77 218.39 96.32 219.63 92.75 220.05 85.81 204.46 82.78 197.08 80.99 190.58 77.03 186.13 77.36 183.9 77.02 182.21 75.95 169.37 74.79 165.59 75.97 163.35 73.78 164.06 72.5 163.51 67.81 157.04 62.24 151.92 57.75 145.34 51.8 134.6 47.76 125.5 42.84 118.78 40.29 114.12 40 111.99 40.98 110.82 43.35 110.64 43.21 112.48 46.9 111.7 50.17 111.62 54.29 110.69 56.28 109.42 59.68 108.64 63.86 106.47 65.43 106.52 70.11 107.78 74.93 106.65 77.77 105.66 79.11 104.67 82.02 103.39 84.5 100.21 85.78 98.24 88.61 97.74 89.67 97.24 93.17 97.6 94.26 98.14 96.32 96.79 99.1 96.12 100.27 95.5 103.16 95.74 105.24 96.29 106.61 97.35 109.86 98.32 110.48 96.18 113.47 95.94 115.23 96.73 117.61 96.45 120.89 97.85 123.69 97.33 125.96 97.98 126.56 98.6 129.37 97.99 130.81 98.57 134.2 98.35 134.8 97.23 140.7 96.59 144.18 95.64 149.07 94.89 152.45 96.39 160.11 95.81 161.59 95.98 165.4 97.32 166.66 97.49 173.73 97.62 176.69 98.15 179.78 98.39 181.83 98.01 184.03 98.37 190.35 99.81 190.47 98.86 193.75 97.45 196.41 96.97 200.01 96.91 Z" id="6"/>
<path d="M 139.3 208.92 140.54 205.53 141.21 204.64 144.28 204.16 145.84 203.52 147.3 201.87 148.21 200.21 145.25 196.94 144.22 195.44 142.4 191.51 142.41 189.26 143.01 187.53 146.12 182.99 146.2 181.61 142.74 177.91 141.6 176.04 139.91 171.22 138.04 167.68 140.97 166.69 145.98 166.73 147.33 166.44 148.66 164.97 150.29 164 150.98 163.06 153.99 161.46 160.28 159.82 166 157.03 166.6 156.53 167.25 154.48 169.81 150.65 172.41 148.74 173.71 148.22 178.39 148.5 183.18 146.55 185.48 143.45 190.48 143.43 194.33 142.72 196.9 141.83 200.91 139.87 201.85 139.16 202.9 136.61 205.49 133.07 208.44 128.52 210.64 126.73 212.99 123.54 213.4 121.56 209.07 117.2 208.28 115.05 206.72 108.82 205.86 106.69 201.15 99.66 200.01 96.91 220.05 96.57 243.55 96.18 267.05 95.79 288.86 95.42 292.43 95.58 294.19 96.14 302.41 95.91 305.39 97.78 306.44 97.96 310.75 97.02 313.05 97.33 318.32 99.74 317.27 101.32 318.34 103.82 318.68 108.82 319.27 110.51 320.75 110.69 323.07 113.48 324.22 113.58 326.68 116.79 325.63 119.78 325.93 121.91 325.57 123.33 326.39 126.09 325.95 126.88 324.32 127.5 324.54 131.02 326.18 131.35 326.31 132.19 325.35 133.92 326.75 134.61 326.71 136.86 328.01 138.22 326.94 141.3 328.1 144.5 328.56 148.01 329.35 150.22 332.89 155.16 333.52 157.91 334.26 158.6 336.28 158.97 338.8 160.25 339.58 161.83 340.06 165.51 339.69 166.98 341.37 167.78 342.55 169.95 341.78 173.46 339.72 172.91 339.58 174.52 340.9 178.73 340.78 182.18 343.58 185.41 344.03 188.19 345.75 188.71 349.17 191.19 350.29 191.69 350.58 193.36 346.93 194.59 344.49 196.28 343.08 198.31 342.29 203.31 341.45 205.2 340.14 206.59 337.24 207.7 334.33 207.41 332.92 206.79 330.19 204.55 323.86 195.85 322.43 192.79 320.27 190.42 317.87 189.71 316.48 189.94 306.48 193.99 302.14 196.95 298.05 202.72 294.01 205.62 292.25 206.23 288.87 206.52 286.93 207.06 284.71 208.39 283.92 209.93 283.65 211.54 283.98 213.09 287.98 225.45 288.52 228.67 288.44 231.58 286.91 235.05 285.81 240.82 283.04 243.55 281.94 244.12 276.94 245.76 274.67 247.11 271.08 247.63 267.03 247.02 267.12 244.25 266.83 241.12 265.61 240 264.27 239.76 263.59 237.61 264.58 236.99 263.47 235.54 261.6 234.13 258.67 233.94 255.75 234.37 251.75 236.44 250.27 236.89 246.09 236.99 243.92 236.47 242.59 235.27 242.45 233.64 243.02 230.75 241.75 229.15 233.6 229.42 229.39 230.42 227.88 231.45 228.33 234.38 227.21 237.24 228.58 238.03 229.72 239.4 228.97 241.4 228.22 245.96 227.46 247.71 226.28 248.2 225.75 249.35 224.22 249.83 222.74 252.58 219.98 252.14 216.43 253.6 215.32 253.33 212.89 251.63 210.36 251.13 209.32 251.65 207.47 253.58 206.41 256.21 203.63 258.91 200.88 259.69 195.55 258.68 193.7 259.06 192.24 253.58 192.03 251.18 192.27 248.48 193.6 244.97 196.35 240.63 196.84 239.19 197.34 228.71 195.78 226.27 192.71 225.41 183.61 227.33 181.47 227.37 178.03 226.5 173.02 224.27 169.68 221.79 165.93 217.17 161.4 212.86 159.13 210.33 157.07 209.77 143.98 209.52 139.3 208.92 Z" id="7"/>
<path d="M 660.68 254.84 656.86 256.89 654.49 259.62 653.07 260.68 647.87 261.58 643.99 262.91 640.48 265.12 638.7 267.26 637.43 268.28 629.15 270.27 624.79 270.31 621.44 269.66 618.51 269.42 614.87 270.19 611.72 270.46 606.57 272.27 603.73 272.61 600.61 273.9 598.03 275.74 596.08 278.17 591.4 281.41 588.18 285.28 586.09 288.71 584.49 293.44 583.62 295.17 582.19 296.82 579.4 298.3 574.97 299.78 565 304.25 564.11 304.98 562.8 307.59 561.25 311.87 560 313.07 557.98 313.94 554.46 314.57 552.34 315.32 549.58 317.05 539.69 325.26 536.95 328.07 536.48 329.79 534.77 342.55 533.61 345.86 531.54 348.99 528.71 352.09 524.45 354.78 515.36 356.93 513.13 358.75 509.56 360.77 503.48 361.77 501.07 362.99 498.53 365.17 495.26 367.35 490.63 368.77 487.13 370.82 483.89 373.67 480.62 375.64 476.13 377.19 469.69 378.01 466.29 378.98 464.29 380.36 461.41 383.21 459.77 384.53 454.13 387.23 449.4 388.18 437.74 387.61 438.93 388.1 435.87 389.01 432.67 387.94 426.22 383.52 422.86 380.68 421.5 379.08 420.06 375.9 420.24 374.39 422.08 370.4 423.13 369.45 425.4 365.2 425.29 363.88 423.84 362.37 396.23 352.01 390.22 349.76 385.87 349.22 384.73 348.27 383.93 345.55 382.29 342.94 381 342.17 377.08 341.04 375.53 339.78 374.04 337.55 371.65 336.11 370.91 334.97 370.27 330.23 368.16 326.9 366.07 322.22 365.95 318.91 367.04 317.54 370.1 315.73 377.76 313.09 379.8 311.28 380.61 308.31 381.96 304.87 382.11 302.69 380.91 296.55 380.97 293.48 382.36 286.8 382.57 275.62 382.07 271.88 378.94 266.27 378.33 263.9 378.24 262.1 379.2 258.91 381.4 255.86 380.08 253.56 379.76 251.9 379.91 243.83 377.9 241.97 378.67 240.26 379.33 238.86 382.93 239.74 384.75 239.71 390.21 237.8 392.15 237.95 395.12 238.67 399.13 236.48 402.33 236.5 404.22 237.4 407.51 240.18 409.23 240.56 415 240.44 414.59 238.82 414.66 237.03 415.26 235.54 420.05 233.35 421.09 233.2 429.04 233.51 431.45 234.43 433.28 234.19 435.76 233.29 441.37 233.24 441.16 229.58 441.94 229.03 456.24 229.04 457.11 231.2 458.51 233.53 469.56 233.53 495.97 233.53 494.59 228.52 494.57 224.85 497.4 216.02 497.61 212.77 495.85 207.66 495.98 205.97 500.42 206.33 501.66 206.05 502.59 205.08 503.26 202.56 504.14 201.43 506.12 199.88 506.16 197.88 504.45 193.6 503.75 189.35 504.45 178.91 505.08 176.84 507.61 173.41 507.87 171.68 506.68 169.13 523.57 169.13 537.09 169.13 556.43 169.13 556.71 166.07 557.52 164.17 558.8 163.64 576.85 163.59 571.25 178.22 570.85 181.22 571 187.44 588.04 187.39 606.78 187.34 625.51 187.29 639.58 187.25 652.42 187.25 653.96 188.73 656.12 192.82 655.59 194.31 656.71 195.82 656.39 197.92 657.31 199.26 656.35 202.92 656.87 204.32 656.87 206.74 655.51 208.56 654.92 211.05 654.22 211.28 653.86 213.6 653.17 214.97 652.48 217.6 651.33 219.07 651.44 221.13 650.95 223.44 651.52 225.6 651.38 226.95 649.87 228.86 650.29 230.13 650.72 234.37 653.06 235.86 653.8 236.78 653.94 238.34 655.06 240.77 656.69 242.64 657.27 244.59 657.41 247.34 658.63 251.56 660.51 253.39 660.68 254.84 Z" id="8"/>
<path d="M 267.03 247.02 271.08 247.63 274.67 247.11 276.94 245.76 281.94 244.12 283.04 243.55 285.81 240.82 286.91 235.05 288.44 231.58 288.52 228.67 287.98 225.45 283.98 213.09 283.65 211.54 283.92 209.93 284.71 208.39 286.93 207.06 288.87 206.52 292.25 206.23 294.01 205.62 298.05 202.72 302.14 196.95 306.48 193.99 316.48 189.94 317.87 189.71 320.27 190.42 322.43 192.79 323.86 195.85 330.19 204.55 332.92 206.79 334.33 207.41 337.24 207.7 340.14 206.59 341.45 205.2 342.29 203.31 343.08 198.31 344.49 196.28 346.93 194.59 350.58 193.36 350.6 194.91 351.6 196.4 353.18 195.65 355.65 196.57 355.54 197.44 354.04 198.06 353.85 199.44 355.41 200.8 356.28 202.25 357.35 205.34 358.31 206.74 361.45 208.31 362.72 209.26 362.49 210.47 362.73 213.03 364.93 215.52 364.28 216.71 366.33 219.49 368.46 220.02 368.81 222.01 369.44 223.04 371.36 223.34 371.47 224.71 373.41 225.93 372.24 227.98 374.71 230.93 375.8 231.61 375.43 233.4 376.96 234.25 378.28 235.69 376.78 237.83 376.83 238.73 378.3 239.36 378.67 240.26 377.9 241.97 379.91 243.83 379.76 251.9 380.08 253.56 381.4 255.86 379.2 258.91 378.24 262.1 378.33 263.9 378.94 266.27 382.07 271.88 382.57 275.62 382.36 286.8 380.97 293.48 380.91 296.55 382.11 302.69 381.96 304.87 380.61 308.31 379.8 311.28 377.76 313.09 370.1 315.73 367.04 317.54 365.95 318.91 366.07 322.22 368.16 326.9 370.27 330.23 370.91 334.97 371.65 336.11 374.04 337.55 375.53 339.78 377.08 341.04 381 342.17 382.29 342.94 383.93 345.55 384.73 348.27 385.87 349.22 390.22 349.76 396.23 352.01 423.84 362.37 425.29 363.88 425.4 365.2 423.13 369.45 422.08 370.4 420.24 374.39 420.06 375.9 421.5 379.08 422.86 380.68 426.22 383.52 432.67 387.94 435.87 389.01 438.93 388.1 440.61 389.65 440.73 390.94 442.8 391.45 443.94 393.44 444.34 395.36 447.56 397.87 449.86 398.52 450.77 399.67 451.2 403.4 449.88 403.8 450.64 405.01 449.44 405.6 448.31 405.12 447.75 406.09 448.56 406.92 448.79 410.48 449.88 413.95 451.87 416.7 455.39 419.87 457.23 422.42 457.79 424.1 457.87 425.87 457.06 428.91 456.87 430.7 457.32 432.45 459.14 435.69 459.55 437.37 458.62 440.4 458.62 441.58 461.6 444.45 462.3 446.33 462.57 448.98 460.9 450.37 456.56 450.03 453.31 450.68 446.52 453.17 441.84 455.78 437.5 460.16 434.8 461.4 430.04 461.25 426.79 460.54 425.15 460.63 420.3 461.9 418.08 462.16 414.71 461.47 411.25 462.44 408.79 460.03 405.97 460.66 402.98 460.11 402.26 458.5 402.53 456.25 401.19 453.15 397.66 449.93 398.48 454.28 398.6 458.81 398.05 460.78 396.86 462.39 390.72 468.74 386.17 472.22 382.14 473.36 376.78 470.84 377.2 467.33 375.29 462.83 375.06 461.3 375.73 459.84 377.98 458.89 377.52 457.27 375.73 458.08 375.74 455.68 377.31 454.27 377.71 452.08 377.45 450.96 373.81 445.2 373.93 443.09 373.02 441.71 371.33 441.77 369.95 441.11 369.53 440.07 370.11 438.88 373.42 436.71 373.53 434.48 373.19 433.2 371.68 431.07 371 428.93 368.66 426.3 368.56 422.95 368.22 421.9 367.01 420.88 363.64 418.87 362.39 417.43 358.94 417.91 356.2 416.82 355.39 417.03 354.64 414.79 351.6 414.4 350.25 415.85 346.3 413.47 339.5 411.54 337.09 410.49 334.47 411.47 333.36 411.27 331.97 411.85 330.51 411.71 328.49 410.43 326.64 407.54 325.93 406.92 323.43 406.75 322.15 405.84 321.01 403.8 319.39 402.97 319.21 402.04 321.01 400.28 319.27 399.17 318.3 398.39 317.55 396.74 316.04 395.59 311.74 390.13 308.36 388.11 308.62 384.37 305.8 380.85 304.7 380.12 302.73 379.82 301.52 378.24 301.15 374.44 301.54 373.05 304.22 371.14 301.81 361.47 300.3 359.82 299.71 355.69 298.95 354.79 297.05 354.38 294.86 352.1 293.94 348.53 292.75 346.84 290.4 345.66 287.67 345.52 284.3 344.84 283.48 345.52 282.16 344.42 280.81 344.09 278.84 344.64 277.68 343.67 276.03 344.74 273.38 345.12 270.05 344.64 267.58 343.91 267.17 345.52 266.1 347.25 264.31 348.2 258.28 348.72 254.84 348.11 252.89 349.12 249.03 348.64 248.18 349.52 246.19 349.08 241.25 349.64 238.91 350.39 234.23 349.79 231.57 349.1 228.56 349.08 227 347.32 224.8 346.84 222.53 344.4 224.98 341.33 225.49 339.63 224.86 335.72 223.42 332.82 223.22 331.72 226.67 327.36 225.92 324.71 222.62 321.78 223.25 320.67 225.11 320.38 227.9 320.61 230.36 319.58 232.16 314.6 233.87 312.77 238.01 312.4 239.36 311.97 240.91 310.49 243.71 309.9 246.09 308.27 246.95 308.11 249.49 309.27 252 309.24 254.53 308.87 256.56 307.56 256.86 303.28 256.64 301.25 256.75 298.27 257.37 296.04 258.31 290.14 260.18 284.18 262 279.81 261.75 278.45 260.89 277.24 258.02 276.04 256.65 275.05 255.21 272.14 256.02 269.99 258.48 266.44 259.25 263.29 260.42 262.66 266.92 260.42 268.04 259.34 267.58 253.35 266.94 250 267.03 247.02 Z" id="9"/>
<path d="M 686.14 401.64 683.74 402.48 681.78 402.57 678.6 401.11 675.19 400.23 671.57 400.26 669.38 401.7 658.78 402.7 654.87 402.51 653.06 402.79 651.1 405.74 650.38 407.69 649.67 410.97 649.88 414.64 647.3 417 645.28 419.38 644.69 422.59 644.64 424.67 643.86 426.08 644.02 427.89 645.32 430.1 646.8 430.82 647.07 433.03 646.71 435.13 640.11 438.16 636.84 438.11 635.85 437.33 633.34 437.94 632.19 439.64 628.04 440.38 626.6 441.27 623.91 441.88 620.56 443.54 617.05 444.27 615.11 446.83 612.87 448.52 611.28 450.78 609.69 451.48 607.77 451.39 604.07 453.57 604.42 455.82 604.16 456.96 601.27 457.17 595.82 456.87 593.43 456.31 590.61 456.03 587.96 455.12 585.6 455.16 584.76 454.74 583.72 453.15 581.4 453.21 578.03 451.36 574.08 450.12 573.4 449 569.87 448.54 567.14 446.23 563.7 444.41 561.3 445.26 557.96 444.63 556.2 443.03 553.2 442.16 548.86 440.05 547.9 440.46 544.25 444.5 541.89 444.73 539.58 443.5 535.4 443.48 533.81 445.46 532.95 445.97 531.08 445.74 529.73 443.88 527.31 442.86 526.38 443.26 523.63 445.54 521.2 446.28 519.09 446.31 515.89 444.92 513.27 443.08 509.65 443.56 508.81 444.5 507.81 446.79 502.43 451.23 498.83 453.06 494.76 453.23 492.79 452.53 491.18 452.59 488.32 454.93 485.22 455.96 485.78 451.84 486.89 448.66 488.27 445.51 488.2 444.01 486.02 441.38 483.9 440.65 480.43 439.91 478.88 439.28 477.45 438.09 474.41 434.95 471.37 432.65 457.79 424.1 457.23 422.42 455.39 419.87 451.87 416.7 449.88 413.95 448.79 410.48 448.56 406.92 447.75 406.09 448.31 405.12 449.44 405.6 450.64 405.01 449.88 403.8 451.2 403.4 450.77 399.67 449.86 398.52 447.56 397.87 444.34 395.36 443.94 393.44 442.8 391.45 440.73 390.94 440.61 389.65 438.93 388.1 437.74 387.61 449.4 388.18 454.13 387.23 459.77 384.53 461.41 383.21 464.29 380.36 466.29 378.98 469.69 378.01 476.13 377.19 480.62 375.64 483.89 373.67 487.13 370.82 490.63 368.77 495.26 367.35 498.53 365.17 501.07 362.99 503.48 361.77 509.56 360.77 513.13 358.75 515.36 356.93 524.45 354.78 528.71 352.09 531.54 348.99 533.61 345.86 534.77 342.55 536.48 329.79 536.95 328.07 539.69 325.26 549.58 317.05 552.34 315.32 554.46 314.57 557.98 313.94 560 313.07 561.25 311.87 562.8 307.59 564.11 304.98 565 304.25 574.97 299.78 579.4 298.3 582.19 296.82 583.62 295.17 584.49 293.44 586.09 288.71 588.18 285.28 591.4 281.41 596.08 278.17 598.03 275.74 600.61 273.9 603.73 272.61 606.57 272.27 611.72 270.46 614.87 270.19 618.51 269.42 621.44 269.66 624.79 270.31 629.15 270.27 637.43 268.28 638.7 267.26 640.48 265.12 643.99 262.91 647.87 261.58 653.07 260.68 654.49 259.62 656.86 256.89 660.68 254.84 659.82 255.86 662.15 260 662.66 262.76 662.4 265.59 660.87 270.55 661.81 270.92 660.27 274.97 658.85 283.78 658.4 284.22 657.25 287.9 656.72 293.02 656.87 296.37 656.13 302.32 656.09 304.93 656.73 310.22 656.71 312.85 656.02 315.6 654.05 319.57 652.87 323.95 653.26 325.51 654.71 326.75 655.35 328.88 656.2 334.9 656.87 337.58 658.47 340.11 662.56 344.35 663.47 346.85 664.69 346.31 666.17 349.9 669.87 354.17 672.45 354.56 675.69 356.76 676.57 357.78 677.58 361.48 678.9 365 679.78 368.52 679.33 370.61 680.51 373.54 682.05 376.43 683.09 379.19 681.77 380.87 682.72 381.92 684.62 381.97 685.3 384.05 686.44 386.03 685.66 389.56 684.22 391.88 683.78 393.22 684.17 395.42 685.36 396.31 685.97 397.66 686.14 401.64 Z" id="10"/>
<path d="M 222.53 344.4 224.8 346.84 227 347.32 228.56 349.08 231.57 349.1 234.23 349.79 238.91 350.39 241.25 349.64 246.19 349.08 248.18 349.52 249.03 348.64 252.89 349.12 254.84 348.11 258.28 348.72 264.31 348.2 266.1 347.25 267.17 345.52 267.58 343.91 270.05 344.64 273.38 345.12 276.03 344.74 277.68 343.67 278.84 344.64 280.81 344.09 282.16 344.42 283.48 345.52 284.3 344.84 287.67 345.52 290.4 345.66 292.75 346.84 293.94 348.53 294.86 352.1 297.05 354.38 298.95 354.79 299.71 355.69 300.3 359.82 301.81 361.47 304.22 371.14 301.54 373.05 301.15 374.44 301.52 378.24 302.73 379.82 304.7 380.12 305.8 380.85 308.62 384.37 308.36 388.11 311.74 390.13 316.04 395.59 317.55 396.74 318.3 398.39 319.27 399.17 317.46 400.27 317.48 403.11 315.79 405.56 312.37 407.09 309.87 410.29 306.73 412.63 303.12 414.46 300.78 415.94 297.98 418.87 294.29 424.96 293.18 426.21 290.8 426.83 286.83 425.74 282.98 426.07 280.19 425.48 276.73 423.17 274.12 431.72 271.7 436.82 267.77 442.5 266.09 444.42 266.2 448.87 265.21 452.13 263.66 455.17 261.92 456.66 255.4 458.34 250.46 459.17 246.47 460.79 241.46 462.52 239.07 464.84 238.08 469.19 239.67 471.72 240.08 474.36 241.33 475.81 240.76 477.67 240.62 479.97 239.33 481.11 240.18 482.95 239.31 487.1 240.12 488.86 235.53 489.04 233.57 490.58 230.21 491.63 222.98 494.14 219.98 497.24 216.85 504.26 215.49 504.03 214.07 503.1 213.06 500.83 211.97 499.82 206.12 496.82 203.08 496.44 200.32 497.31 198.17 497.44 194.31 496.28 192.35 493.65 190.57 490.15 184.38 481.97 182.19 480.39 179.33 480.41 177.78 480.98 174.75 482.84 173.43 483.95 170.3 488.16 166.29 491.09 163.2 487.29 161.6 485.95 158.66 484.2 157.72 483.01 156.69 478.5 155.97 477.32 153.31 476.45 149.57 476.94 144.19 476 140.93 475.73 137.73 474.81 136.77 464.53 137.04 457.57 137.86 454.97 137.35 454.39 137.86 452.09 137.83 448.58 138.22 447.29 139.43 445.63 139.61 443.1 141.2 433.92 141.33 425.44 141 423.1 140.05 421.03 134.3 412.64 133.77 410.31 134.31 409.22 136.26 406.9 136.39 405.85 135.18 403.81 132.5 401.61 131.82 400.25 125.72 392.99 121.61 389.67 120.34 387.17 120.22 382.82 119.46 380.04 118.18 378.25 119.01 376.34 120.36 375.85 122.06 376.82 122.93 378.01 124.72 378.43 128.5 380.73 131.7 385.43 133 385.51 133.63 384.57 136.35 385.43 138.95 385.54 140.29 386.52 144.83 386 147.04 386.08 149.81 387.07 151.02 388.19 152.62 387.94 153.89 386.77 156.32 385.47 160.4 381.95 163.45 380.41 164.94 380 167.91 380.04 171.72 380.92 176.55 383.1 182.18 388.52 186.51 390.47 188.37 388.61 190.12 385.8 190.88 382.97 190.52 380.08 187.67 377.41 186.88 375.89 186.8 374.5 187.77 371.34 187.3 369.05 186.03 365.58 185.85 364.04 187.54 361.04 188.09 359.36 188.24 357.11 188.11 352.46 187.48 347.33 191.93 347.72 198.74 346.66 200.09 345 201.29 344.57 202.61 344.91 206.04 343.76 211.09 344.2 212.23 343.15 212.17 341.17 215.21 341.78 220.38 343.96 222.53 344.4 Z" id="11"/>
<path d="M 123.06 609.92 121.04 610.1 115.7 608.64 112.54 608.96 111.3 608.33 108.77 604.14 106.45 601.15 105.21 598.19 106.13 593.78 106.05 592.67 105.14 591.59 93.2 588.98 91.51 589.23 89.56 591.16 88.43 591.77 81.48 594.47 79.68 594.83 78.16 594.44 75.37 592.52 70.81 591.84 67.64 590.88 61.78 589.78 59.97 590 56.64 591.9 56.01 590.89 56.23 587.88 55.31 583.86 55.92 581.83 56.61 581.08 58.87 580.66 60.59 578.6 63.15 577.5 63.71 575.76 63.26 574.36 64.57 571.85 66.41 570.9 66.99 569.45 68.15 569.72 71.33 567.82 75.56 562.46 77.4 561.15 79.16 558.74 83.14 554.25 84.03 552.52 84.04 550.82 82.49 547.26 82.02 545.22 82.79 543.58 85.77 540.58 87.31 539.71 91.52 535.75 93.72 534.43 95.24 531.99 98.19 529.74 101.68 530.47 103.72 528.51 105.64 528.42 107.84 529.59 110.13 529.16 111.99 527.72 114.87 524.72 116.29 523.66 117.15 521.84 117.27 519.18 118.02 516.8 119.25 514.91 122.64 512.13 123.88 512.31 125.17 510.23 127.89 507.01 129.42 501.91 131.34 498.09 132.09 496.02 132.74 491.53 135.54 487.29 136.05 485.87 137.08 479.46 137.71 477.53 137.73 474.81 140.93 475.73 144.19 476 149.57 476.94 153.31 476.45 155.97 477.32 156.69 478.5 157.72 483.01 158.66 484.2 161.6 485.95 163.2 487.29 166.29 491.09 170.3 488.16 173.43 483.95 174.75 482.84 177.78 480.98 179.33 480.41 182.19 480.39 184.38 481.97 190.57 490.15 192.35 493.65 194.31 496.28 198.17 497.44 200.32 497.31 203.08 496.44 206.12 496.82 211.97 499.82 213.06 500.83 214.07 503.1 215.49 504.03 216.85 504.26 216.57 512.29 216.76 513.59 218.72 519.84 218.74 521.34 219.95 524.22 218.77 525.92 215.99 526.23 213.75 526.8 210.71 528.34 209.46 529.3 208.38 530.94 205.27 532.73 203.03 535.1 203.38 541.52 205.11 546.19 205.82 549.32 207.88 553.26 209.6 556.11 210.51 560.13 210.8 563.48 209.86 567.39 210.98 570.51 213.04 573.77 214.55 575.25 217.93 577.59 219.97 579.86 222.62 581.33 221.16 586.01 214.12 589.12 209.86 588.71 206.66 590.83 204.16 593.53 201.11 595.61 194.82 597.77 192.26 597.73 184.57 594.61 181.75 594.95 181.34 597.7 180.33 599 175.89 607.69 173.89 610.46 170.53 611.68 156.38 609.94 152.54 609.75 149.39 608.59 146.74 608.65 141.96 609.82 138.85 609.77 135.07 609.08 131.54 607.78 129.92 607.63 123.06 609.92 Z" id="12"/>
<path d="M 92.75 220.05 96.32 219.63 99.77 218.39 102.33 216.44 104.58 217.08 106.56 215.08 108.85 214.21 112.47 213.76 116.11 216.18 119.14 216.3 126.55 214.15 129.78 212.42 132.86 212.33 133.95 212.02 139.3 208.92 143.98 209.52 157.07 209.77 159.13 210.33 161.4 212.86 165.93 217.17 169.68 221.79 173.02 224.27 178.03 226.5 181.47 227.37 183.61 227.33 192.71 225.41 195.78 226.27 197.34 228.71 196.84 239.19 196.35 240.63 193.6 244.97 192.27 248.48 192.03 251.18 192.24 253.58 193.7 259.06 191.06 260.39 189.43 259.24 186.76 258.71 183.38 258.57 180.59 258.79 178.08 258.23 175.38 258.38 173.32 259.34 170.48 261.13 168.03 263.48 167.88 265.41 168.38 267.02 169.37 268.45 172.63 271.9 174.86 278.18 175.12 279.64 174.51 282.55 172.61 285.21 171.24 286.38 169.05 287.57 166.22 288.66 158.85 290.7 156.64 292.46 156.5 294.63 160.18 297.72 160.22 299.64 159.38 301.34 156.76 303.08 155.85 304.01 155.86 305.15 157.42 306.17 160.77 307.15 161.92 308.03 162.45 309.28 162 311.75 163.99 314.9 163.55 316.61 161.44 319.15 160.67 320.54 159.16 325.49 156.53 331.65 157.19 331.61 159.05 333.21 160.51 337.02 161.49 338.24 164.15 338.58 166.52 338.05 168.37 339.17 169.42 341.56 172.49 342.26 174.7 341.56 177.58 342.07 179.79 343.32 182.09 345.56 184.2 346.77 185.75 348.14 187.48 347.33 188.11 352.46 188.24 357.11 188.09 359.36 187.54 361.04 185.85 364.04 186.03 365.58 187.3 369.05 187.77 371.34 186.8 374.5 186.88 375.89 187.67 377.41 190.52 380.08 190.88 382.97 190.12 385.8 188.37 388.61 186.51 390.47 182.18 388.52 176.55 383.1 171.72 380.92 167.91 380.04 164.94 380 163.45 380.41 160.4 381.95 156.32 385.47 153.89 386.77 152.62 387.94 151.02 388.19 149.81 387.07 147.04 386.08 144.83 386 140.29 386.52 138.95 385.54 136.35 385.43 133.63 384.57 133 385.51 131.7 385.43 128.5 380.73 124.72 378.43 122.93 378.01 122.06 376.82 120.36 375.85 119.01 376.34 118.18 378.25 115.19 373.75 114.45 370.6 110.95 366.75 107.13 360.67 108.28 357.47 107.76 354.85 106.36 352.05 104.59 349.42 99.48 343.43 99.32 341.12 100.77 339.6 101.11 337.35 97.63 327.83 97.68 323.72 96.2 320.47 95.92 319.06 98.57 317.74 99.9 315.7 102.48 310.89 104.77 308.91 106.34 308.21 109.84 308.47 113.14 307.85 117.26 308.85 117.78 307.46 119.16 295.89 121.58 292.76 123.48 289.3 124.77 288.19 127.73 287.22 127.95 285.17 127.46 282.16 126.36 278.08 125.49 276.37 124.33 275.2 123.05 274.79 121.79 275.21 119.99 275.08 116.95 272.71 114.29 271.4 110.58 270.85 109.36 265.58 108.72 263.5 110.68 263.31 111.33 261.99 111.39 257.15 110.48 254.23 104.52 244.92 103.75 244.33 102.84 241.41 99.44 234.79 98.88 231.84 94.6 224.21 92.75 220.05 Z" id="13"/>
<path d="M 110.58 270.85 114.29 271.4 116.95 272.71 119.99 275.08 121.79 275.21 123.05 274.79 124.33 275.2 125.49 276.37 126.36 278.08 127.46 282.16 127.95 285.17 127.73 287.22 124.77 288.19 123.48 289.3 121.58 292.76 119.16 295.89 117.78 307.46 117.26 308.85 113.14 307.85 109.84 308.47 106.34 308.21 104.77 308.91 102.48 310.89 99.9 315.7 98.57 317.74 95.92 319.06 94.46 317.96 89.61 309.97 87.77 305.71 86.45 303.84 86.2 300.25 88.64 295.19 92.25 290.86 95.48 289.49 94.08 291.55 89.45 295.38 87.13 300.73 86.7 302.44 88.2 302.62 91.81 296.55 92.29 295.2 94.6 294.85 95.54 293.99 96.24 291.87 99 288.17 99.22 285.31 100.35 285.88 104.59 283.79 105.63 282.01 109.62 282.57 111.17 282.02 112.02 278.75 112.97 276.35 112.84 274.43 110.95 271.82 110.58 270.85 Z" id="14"/>
<path d="M 405.66 592.25 404.93 594.71 403.86 597.07 401.79 598.83 396.35 600.08 395.63 601.36 396.13 604.32 396.25 610.21 394.43 613.27 390.17 616.7 388.82 617.25 386 619.19 382.63 619.4 380.03 620.47 376.75 620.41 374.25 621.73 372.31 624.63 370.24 626.95 367.15 629.03 366.45 630.7 366.61 633.03 366.03 635.24 364.12 637.84 363.65 639.86 360.92 639.23 359.21 638.42 355.39 635.8 353.22 634.91 349.81 632.87 347 630.44 346.36 629.05 345.04 624.53 343.02 621.35 341.28 619.68 338.36 619.13 333.35 621.29 330.63 620.55 328.48 619.13 325.41 618.34 321.18 619.75 318.3 620.03 312.35 619.78 310.38 620.45 310.59 609.89 310.36 607.52 311.23 605.76 311.53 603.6 312.51 599.84 313.39 597.99 314.19 590.81 313.2 581.9 313.77 578.34 314.59 572.96 314.52 569.45 314.2 567.58 314.51 565.26 313.28 559.51 312.17 543.14 312.27 539.38 309.44 538.4 306.37 536.88 303.64 534.54 302.6 532.48 300.34 529.72 299.59 528.31 299.72 525.63 302.83 523.39 303.79 522.16 304.48 519.04 304.32 515.41 302.68 511.44 301.84 510.23 301.62 508.82 302.08 507.48 303.13 506.51 306.08 504.69 310.77 500.73 312.55 497.89 313.31 494.54 317.16 489.03 317.42 487.25 316.95 485.07 314.54 482.35 310.84 479.14 310.44 476.1 310 475.2 306.03 472.36 304.59 470.52 302.6 468.84 300.14 465.87 299.61 461.86 298.71 458.99 296.79 458.02 293.55 457.77 291.17 457 283.45 455.54 278.84 457.35 273.75 458.01 268.85 457.25 263.66 455.17 265.21 452.13 266.2 448.87 266.09 444.42 267.77 442.5 271.7 436.82 274.12 431.72 276.73 423.17 280.19 425.48 282.98 426.07 286.83 425.74 290.8 426.83 293.18 426.21 294.29 424.96 297.98 418.87 300.78 415.94 303.12 414.46 306.73 412.63 309.87 410.29 312.37 407.09 315.79 405.56 317.48 403.11 317.46 400.27 319.27 399.17 321.01 400.28 319.21 402.04 319.39 402.97 321.01 403.8 322.15 405.84 323.43 406.75 325.93 406.92 326.64 407.54 328.49 410.43 330.51 411.71 331.97 411.85 333.36 411.27 334.47 411.47 337.09 410.49 339.5 411.54 346.3 413.47 350.25 415.85 351.6 414.4 354.64 414.79 355.39 417.03 356.2 416.82 358.94 417.91 362.39 417.43 363.64 418.87 367.01 420.88 368.22 421.9 368.56 422.95 368.66 426.3 371 428.93 371.68 431.07 373.19 433.2 373.53 434.48 373.42 436.71 370.11 438.88 369.53 440.07 369.95 441.11 371.33 441.77 373.02 441.71 373.93 443.09 373.81 445.2 377.45 450.96 377.71 452.08 377.31 454.27 375.74 455.68 375.73 458.08 377.52 457.27 377.98 458.89 375.73 459.84 375.06 461.3 375.29 462.83 377.2 467.33 376.78 470.84 382.14 473.36 386.17 472.22 390.72 468.74 396.86 462.39 398.05 460.78 398.6 458.81 398.48 454.28 397.66 449.93 401.19 453.15 402.53 456.25 402.26 458.5 402.98 460.11 405.97 460.66 408.79 460.03 411.25 462.44 414.71 461.47 418.08 462.16 420.3 461.9 425.15 460.63 426.79 460.54 430.04 461.25 434.8 461.4 437.5 460.16 441.84 455.78 446.52 453.17 453.31 450.68 456.56 450.03 460.9 450.37 462.57 448.98 462.3 446.33 461.6 444.45 458.62 441.58 458.62 440.4 459.55 437.37 459.14 435.69 457.32 432.45 456.87 430.7 457.06 428.91 457.87 425.87 457.79 424.1 471.37 432.65 474.41 434.95 477.45 438.09 478.88 439.28 480.43 439.91 483.9 440.65 486.02 441.38 488.2 444.01 488.27 445.51 486.89 448.66 485.78 451.84 485.22 455.96 483.78 456.22 481.88 457.89 479.49 460.98 478.41 463.85 477.95 467.05 477.21 469.02 474.78 470.97 471.65 471.42 470.91 472.11 471.12 474.72 470.54 476.48 467.7 478.4 465.33 482.62 463.9 484.55 463.26 486.27 463.29 487.96 464.47 490.48 464.64 491.88 463.36 494.84 460.72 497.88 458.5 499.22 455.4 502.51 455.21 504.01 455.84 505.6 454.44 507.88 451.02 509.78 447.02 512.82 443.55 514.28 442.07 515.28 436.54 520.61 435.52 522.95 435.71 524.69 435.29 525.84 433.39 528.72 429.31 533.11 428.57 534.78 427.94 538.01 426.84 539.28 420.55 544.37 419.01 545.19 418.62 546.53 420.01 551.15 419.7 553.08 415.4 558.8 412.48 560.96 412.46 562.15 411.31 565.07 411.63 566.53 413.12 570.24 413.62 573.02 413.26 574.7 412.1 575.76 409.25 576.94 407.16 578.25 405.28 580.78 406.34 585.38 405.15 589.18 405.66 592.25 Z" id="15"/>
<path d="M 193.7 259.06 195.55 258.68 200.88 259.69 203.63 258.91 206.41 256.21 207.47 253.58 209.32 251.65 210.36 251.13 212.89 251.63 215.32 253.33 216.43 253.6 219.98 252.14 222.74 252.58 224.22 249.83 225.75 249.35 226.28 248.2 227.46 247.71 228.22 245.96 228.97 241.4 229.72 239.4 228.58 238.03 227.21 237.24 228.33 234.38 227.88 231.45 229.39 230.42 233.6 229.42 241.75 229.15 243.02 230.75 242.45 233.64 242.59 235.27 243.92 236.47 246.09 236.99 250.27 236.89 251.75 236.44 255.75 234.37 258.67 233.94 261.6 234.13 263.47 235.54 264.58 236.99 263.59 237.61 264.27 239.76 265.61 240 266.83 241.12 267.12 244.25 267.03 247.02 266.94 250 267.58 253.35 268.04 259.34 266.92 260.42 260.42 262.66 259.25 263.29 258.48 266.44 256.02 269.99 255.21 272.14 256.65 275.05 258.02 276.04 260.89 277.24 261.75 278.45 262 279.81 260.18 284.18 258.31 290.14 257.37 296.04 256.75 298.27 256.64 301.25 256.86 303.28 256.56 307.56 254.53 308.87 252 309.24 249.49 309.27 246.95 308.11 246.09 308.27 243.71 309.9 240.91 310.49 239.36 311.97 238.01 312.4 233.87 312.77 232.16 314.6 230.36 319.58 227.9 320.61 225.11 320.38 223.25 320.67 222.62 321.78 225.92 324.71 226.67 327.36 223.22 331.72 223.42 332.82 224.86 335.72 225.49 339.63 224.98 341.33 222.53 344.4 220.38 343.96 215.21 341.78 212.17 341.17 212.23 343.15 211.09 344.2 206.04 343.76 202.61 344.91 201.29 344.57 200.09 345 198.74 346.66 191.93 347.72 187.48 347.33 185.75 348.14 184.2 346.77 182.09 345.56 179.79 343.32 177.58 342.07 174.7 341.56 172.49 342.26 169.42 341.56 168.37 339.17 166.52 338.05 164.15 338.58 161.49 338.24 160.51 337.02 159.05 333.21 157.19 331.61 156.53 331.65 159.16 325.49 160.67 320.54 161.44 319.15 163.55 316.61 163.99 314.9 162 311.75 162.45 309.28 161.92 308.03 160.77 307.15 157.42 306.17 155.86 305.15 155.85 304.01 156.76 303.08 159.38 301.34 160.22 299.64 160.18 297.72 156.5 294.63 156.64 292.46 158.85 290.7 166.22 288.66 169.05 287.57 171.24 286.38 172.61 285.21 174.51 282.55 175.12 279.64 174.86 278.18 172.63 271.9 169.37 268.45 168.38 267.02 167.88 265.41 168.03 263.48 170.48 261.13 173.32 259.34 175.38 258.38 178.08 258.23 180.59 258.79 183.38 258.57 186.76 258.71 189.43 259.24 191.06 260.39 193.7 259.06 Z" id="16"/>
<path d="M 310.38 620.45 311.02 621.91 310.61 624.23 310.79 625.74 311.86 629.25 311.32 631.5 310.92 635.19 309.62 637.06 310.6 642.87 312.38 647.4 312.23 649.86 312.48 653.23 312.25 654.76 312.23 660.15 312.93 661.59 315.79 663.85 317.46 664.13 316.57 665.49 318.61 665.74 319.89 667.25 318.76 669.82 321.45 673.46 322.37 676.3 321.8 679.91 322.33 682.31 325.2 686.14 325.71 688.22 324.53 689.35 325.26 691.5 328.05 694.68 320.6 694.53 317.49 693.97 313.2 694.22 307.35 696.23 304.17 698.06 302.72 700.11 294.96 708.71 293.55 709.53 288.58 709.45 283.9 710.25 272.93 710.13 269.27 709.06 263.13 709.49 261.25 709.93 256.74 712.16 254.92 712.72 250.22 715.41 245.05 720.97 239.82 729.96 236.8 733.66 231.42 744.18 228.04 748.14 226.33 751.07 223.7 752.32 218.03 751.31 217.32 748.53 215.69 746.06 212.92 744.19 205.75 741.9 196.92 739.8 193.93 739.51 189.38 739.81 185.02 739.37 183 740.76 175.37 748.69 174.15 749.55 167.43 753.18 161.68 755.16 158.65 755.83 156.54 757.37 154.41 760.01 151.85 761.42 149.99 760.65 147.64 758.49 146.09 758.09 144.3 758.64 142.49 760.47 137.44 766.72 134.2 769.45 131.75 770.67 127.84 772.13 126.35 772.19 123.27 769.73 121.76 768.08 117.66 764.57 119.54 763.19 120.62 760.53 120.32 758.47 118.74 754.59 118.56 751.7 119.63 748.21 124.07 740.34 124.67 737.01 122.16 731.42 121.83 718.38 119.63 714.97 117.44 713.95 114.9 711.77 114.14 710.23 113.8 706.35 113.45 705.07 112.38 704.12 109.51 705.63 108.16 705.65 107.1 704.67 106.09 701.79 104.81 701.22 101.89 700.97 100.93 700.1 100.9 698.95 101.87 697.87 104.29 696.5 104.84 694.52 102.26 690.32 102.28 689.01 104.21 685.73 104.32 684.67 103.86 680.01 104.56 678.25 105.79 676.87 108.4 675.9 109.74 674.86 121.64 666.81 124.7 663.33 126 660.33 127.3 653.8 130.55 647.99 129.56 637.65 127.2 635.76 125.92 634.15 125.65 632.91 126.06 630.69 124.35 625.09 125.19 621.48 126.24 619.61 126.91 617.04 126.53 615.58 124.54 613.13 123.06 609.92 129.92 607.63 131.54 607.78 135.07 609.08 138.85 609.77 141.96 609.82 146.74 608.65 149.39 608.59 152.54 609.75 156.38 609.94 170.53 611.68 173.89 610.46 175.89 607.69 180.33 599 181.34 597.7 181.75 594.95 184.57 594.61 192.26 597.73 194.82 597.77 201.11 595.61 204.16 593.53 206.66 590.83 209.86 588.71 214.12 589.12 221.16 586.01 222.62 581.33 225.54 582.03 233.85 580.38 235.62 580.5 237.51 582.89 238.85 586.29 239.81 594.04 240.61 595.44 241.89 596.19 244.85 596.26 247.35 596.9 247.88 598.16 248.02 602.7 248.28 603.95 249.88 604.59 254.96 601.75 258.22 597.93 263.52 595.04 274.45 583.5 277.33 581.16 279.68 580.9 283.12 583.41 284.65 584 288.65 583.58 289.57 582.82 292.45 579.06 295.53 577.35 297.49 577.26 299.51 577.85 305.1 578.05 309.52 578.99 313.77 578.34 313.2 581.9 314.19 590.81 313.39 597.99 312.51 599.84 311.53 603.6 311.23 605.76 310.36 607.52 310.59 609.89 310.38 620.45 Z" id="17"/>
<path d="M 216.85 504.26 219.98 497.24 222.98 494.14 230.21 491.63 233.57 490.58 235.53 489.04 240.12 488.86 239.31 487.1 240.18 482.95 239.33 481.11 240.62 479.97 240.76 477.67 241.33 475.81 240.08 474.36 239.67 471.72 238.08 469.19 239.07 464.84 241.46 462.52 246.47 460.79 250.46 459.17 255.4 458.34 261.92 456.66 263.66 455.17 268.85 457.25 273.75 458.01 278.84 457.35 283.45 455.54 291.17 457 293.55 457.77 296.79 458.02 298.71 458.99 299.61 461.86 300.14 465.87 302.6 468.84 304.59 470.52 306.03 472.36 310 475.2 310.44 476.1 310.84 479.14 314.54 482.35 316.95 485.07 317.42 487.25 317.16 489.03 313.31 494.54 312.55 497.89 310.77 500.73 306.08 504.69 303.13 506.51 302.08 507.48 301.62 508.82 301.84 510.23 302.68 511.44 304.32 515.41 304.48 519.04 303.79 522.16 302.83 523.39 299.72 525.63 299.59 528.31 300.34 529.72 302.6 532.48 303.64 534.54 306.37 536.88 309.44 538.4 312.27 539.38 312.17 543.14 313.28 559.51 314.51 565.26 314.2 567.58 314.52 569.45 314.59 572.96 313.77 578.34 309.52 578.99 305.1 578.05 299.51 577.85 297.49 577.26 295.53 577.35 292.45 579.06 289.57 582.82 288.65 583.58 284.65 584 283.12 583.41 279.68 580.9 277.33 581.16 274.45 583.5 263.52 595.04 258.22 597.93 254.96 601.75 249.88 604.59 248.28 603.95 248.02 602.7 247.88 598.16 247.35 596.9 244.85 596.26 241.89 596.19 240.61 595.44 239.81 594.04 238.85 586.29 237.51 582.89 235.62 580.5 233.85 580.38 225.54 582.03 222.62 581.33 219.97 579.86 217.93 577.59 214.55 575.25 213.04 573.77 210.98 570.51 209.86 567.39 210.8 563.48 210.51 560.13 209.6 556.11 207.88 553.26 205.82 549.32 205.11 546.19 203.38 541.52 203.03 535.1 205.27 532.73 208.38 530.94 209.46 529.3 210.71 528.34 213.75 526.8 215.99 526.23 218.77 525.92 219.95 524.22 218.74 521.34 218.72 519.84 216.76 513.59 216.57 512.29 216.85 504.26 Z" id="18"/>
</g>
</svg>