<?xml version="1.0"?>
<svg xmlns="http://www.w3.org/2000/svg" version="1.2" baseProfile="tiny" width="800" height="880" viewBox="0 0 800 880" stroke-linecap="round" stroke-linejoin="round">
<g id="ao">
<path d="M 72.69 1 77.3 1.19 80.41 6.16 88.44 14.66 91.43 16.15 88.59 18.83 75.95 21.77 72.19 25.43 71.03 29.16 67.17 31.62 66.01 34.76 61.95 35.48 60.14 39.65 57.74 41.19 50.91 43.18 55.04 49.92 55.02 86.4 44.47 86.3 38.97 87.08 35.85 88.8 32.71 83.51 31.77 79.43 33.25 75.35 36.37 74.03 37.24 70.52 30.81 54.61 30.32 51.54 23.78 42.6 29.81 44.12 30.82 40.01 25.94 41.4 23.45 40.19 30.71 34.03 32.41 31.3 34.37 24.7 37.44 27.01 43.69 24.56 46.38 19.23 46.61 15.12 54.31 12.93 61.45 11.62 68.56 4.34 69.81 1.31 72.69 1 Z" id="1"/>
<path d="M 665.23 758.69 669.18 764.26 667.71 765.16 669.87 771.49 673.07 772.44 671.42 777.49 675.16 783.6 676.04 786.5 681.58 790.87 684.99 790.28 687.76 791.39 690.27 794.95 693.1 796.6 699.94 806.91 702.92 809.99 708.24 812.33 712.02 815.98 714.95 822.38 722.69 828.39 730.58 831.33 733.27 834.12 735.37 838.5 742.01 843.2 744 847.26 749.39 846.89 755.29 851.12 755.25 853.7 723.57 859.68 681.11 867.63 648.79 873.58 626.42 877.62 625.37 876.29 615.82 872.34 607.87 872.82 597.31 875.57 595.08 877.62 589.39 878.83 584.97 876.39 580.38 875.54 573.89 875.85 569 873.08 565.65 870.01 562.38 869.74 559.12 867.46 555.39 867.46 553.15 869.26 549.91 868.57 539.68 870.1 534.38 867.94 524.21 867.94 522.73 869.74 516.39 866.68 511.25 867.62 500.21 867.75 489.98 864.83 484.16 864.01 474.4 865.37 465.99 863.88 457.75 860.56 455.82 858.5 448.58 850.72 444.16 846.88 440.41 842.32 437.89 837.52 417.41 837.47 384.38 837.46 362.25 837.46 362.47 826.6 359.44 812.59 358.85 806.06 359.42 797.64 362.95 789.27 364.25 783.92 368.33 779.11 371.16 771.55 370.87 763.71 369.19 751.29 368.98 743.17 367.41 739.28 363.35 735.52 355.05 721.12 349.78 717.21 347.79 712.61 342.95 710.78 339.56 706.41 334.32 703.15 333.95 699.58 331.85 699.07 328.05 694.11 324.53 688.78 325.2 685.57 322.33 681.73 322.37 675.73 318.76 669.25 319.89 666.68 316.57 664.92 312.23 659.58 312.38 646.83 310.6 642.3 309.62 636.49 310.92 634.62 311.86 628.67 310.38 619.88 312.35 619.21 321.18 619.18 325.41 617.77 333.35 620.71 338.36 618.55 341.28 619.11 345.04 623.96 347 629.87 349.81 632.3 359.21 637.85 363.65 639.28 366.03 634.67 367.15 628.46 370.24 626.38 374.25 621.15 386 618.61 394.43 612.7 396.25 609.64 396.35 599.51 401.79 598.26 403.86 596.5 405.66 591.68 407.68 592.39 422.58 600.45 430.1 601.18 438.34 604.91 444.41 606.76 455.53 615.95 458.86 622 460.6 630.17 460.46 633.51 466.46 643.92 469.69 644.9 474.2 643.31 483.3 644.3 484.98 642.72 484.64 637.26 487.36 635.53 499.77 638.28 507.07 637.87 512.52 644.05 517.01 653.33 526.11 662.66 532.66 668.45 536.36 670.34 543.12 677.57 548.11 680.24 554.93 682.67 564.43 683.33 573.17 682.77 575.5 681.4 581.44 681.05 589.3 683.9 591.41 682.45 594.83 684.61 597.21 683.9 605.26 692.61 608.72 697.53 612.64 700.44 615.45 699.69 618.92 705.05 618.92 706.85 626.17 710.84 628.34 714.61 629.03 719.63 632.78 721.84 636.06 728.51 641.95 738.05 647.58 738.62 650.52 741.81 652.08 745.7 656.85 753.35 660.38 754.73 665.23 758.69 Z" id="2"/>
<path d="M 665.23 758.69 660.38 754.73 656.85 753.35 652.08 745.7 650.52 741.81 647.58 738.62 641.95 738.05 636.06 728.51 632.78 721.84 629.03 719.63 628.34 714.61 626.17 710.84 618.92 706.85 618.92 705.05 615.45 699.69 612.64 700.44 608.72 697.53 605.26 692.61 597.21 683.9 594.83 684.61 591.41 682.45 589.3 683.9 581.44 681.05 575.5 681.4 573.17 682.77 564.43 683.33 554.93 682.67 548.11 680.24 543.12 677.57 536.36 670.34 532.66 668.45 526.11 662.66 517.01 653.33 512.52 644.05 507.07 637.87 499.77 638.28 487.36 635.53 484.64 637.26 484.98 642.72 483.3 644.3 474.2 643.31 469.69 644.9 466.46 643.92 460.46 633.51 460.6 630.17 458.86 622 455.53 615.95 444.41 606.76 438.34 604.91 430.1 601.18 422.58 600.45 407.68 592.39 405.66 591.68 405.15 588.61 406.34 584.81 405.28 580.21 407.16 577.68 412.1 575.19 413.62 572.44 411.31 564.5 412.48 560.39 415.4 558.22 419.7 552.51 418.62 545.95 427.94 537.44 429.31 532.54 435.29 525.27 436.54 520.04 442.07 514.71 447.02 512.25 454.44 507.31 455.4 501.94 460.72 497.3 464.64 491.3 463.29 487.39 463.9 483.98 467.7 477.83 470.54 475.91 470.91 471.54 477.21 468.45 479.49 460.41 481.88 457.32 485.22 455.39 491.18 452.02 498.83 452.48 502.43 450.66 507.81 446.22 509.65 442.99 513.27 442.51 519.09 445.74 523.63 444.97 527.31 442.29 532.95 445.4 535.4 442.9 544.25 443.93 548.86 439.48 561.3 444.69 563.7 443.84 569.87 447.97 578.03 450.79 585.6 454.58 595.82 456.3 604.16 456.39 604.07 453 607.77 450.82 611.28 450.21 617.05 443.7 620.56 442.97 628.04 439.81 632.19 439.07 633.34 437.37 640.11 437.59 646.71 434.55 646.8 430.25 644.02 427.32 645.28 418.81 649.88 414.06 649.67 410.4 651.1 405.17 653.06 402.22 669.38 401.13 675.19 399.66 681.78 402 686.14 401.07 687.03 409.42 686.21 411.2 680.69 412.95 676.93 416.51 681.97 431.06 682.72 436.75 681.57 442.09 684.42 441.27 688.18 437.63 694.63 435.48 696.5 433.91 698.53 428.75 700.89 428.41 708.19 431.32 713.13 432.25 719.67 429.38 728.03 432.33 731.81 432.58 743.34 430.65 754.71 424.42 762.53 423.72 771.98 426.31 779.11 426.55 784.36 427.86 790.43 422.5 791.76 418.39 795.31 424.89 794.43 433.33 796.05 434.42 795.79 443.6 799 451.46 795.71 455.61 795.69 459.73 792.48 465.77 792.14 468.67 793.86 472.7 794.33 479.74 792.94 482.88 792.12 500.2 792.46 503.08 796.15 508.38 797.05 515.22 796.34 517.41 790.47 526.59 786.41 541.28 788.31 545.14 791.82 548.68 795.11 554.91 753.01 554.91 721 554.91 696.99 554.91 664.97 554.91 665 593.73 665.03 642.25 665.05 661.66 665.07 700.48 665.02 748.09 665.23 758.69 Z" id="3"/>
<path d="M 56.64 591.33 61.78 589.21 75.37 591.95 78.16 593.87 81.48 593.9 88.43 591.2 93.2 588.41 105.14 591.02 106.13 593.21 105.21 597.62 106.45 600.57 111.3 607.76 123.06 609.35 126.91 616.47 124.35 624.52 126.06 630.12 125.65 632.34 129.56 637.08 130.55 647.42 127.3 653.22 124.7 662.76 121.64 666.24 109.74 674.29 105.79 676.3 103.86 679.44 104.21 685.16 102.26 689.74 104.84 693.95 100.9 698.38 101.89 700.4 106.09 701.22 107.1 704.1 113.45 704.5 114.9 711.2 119.63 714.4 121.83 717.8 122.16 730.85 124.67 736.43 124.07 739.77 119.63 747.64 118.74 754.02 120.62 759.96 117.66 764 113.45 768.69 109.65 771.31 101.31 775.63 99.68 778.1 102.63 782.49 101.06 786.17 96.14 790.65 96.65 793.99 106.32 804.15 108.97 810.39 103.91 811.47 97.4 809.26 85.65 811.26 84.41 812.78 79.42 814.33 78.48 816.42 74.34 819.36 66.58 823.53 63.26 824.33 58 827.58 51.95 826.78 49.2 825.51 46.73 826.6 37.92 826.89 37.22 825.41 28.42 821.4 24.15 822 18.56 824.03 9.21 829.4 6.37 827.17 6.79 814.53 8.82 799.92 10.73 798.34 10.3 785.61 10.82 778.86 8.07 754.44 9.86 749.22 5.33 741.58 6.31 735.07 9.73 733.15 12.26 734.72 15.51 731.7 16.51 727.16 21.78 723.37 24.13 715.18 25.92 698.62 29.05 694.74 29.53 691.03 32.63 680.62 34.92 677.72 35.67 672.88 37.46 672.22 39.85 667.55 39.44 664.04 41.14 657.05 41.55 651.9 43.63 647.13 44.32 636.63 42.59 631.32 45.16 627.83 43.46 625.15 48.23 615.44 49.05 611.4 54.65 609.89 55.54 600.87 55.31 594.54 56.64 591.33 Z M 4.63 787.84 1 783.89 4.24 780.6 4.63 787.84 Z" fill-rule="evenodd" id="4"/>
<path d="M 328.05 694.11 331.85 699.07 333.95 699.58 334.32 703.15 339.56 706.41 342.95 710.78 347.79 712.61 349.78 717.21 355.05 721.12 363.35 735.52 367.41 739.28 368.98 743.17 369.19 751.29 370.87 763.71 371.16 771.55 368.33 779.11 364.25 783.92 362.95 789.27 359.42 797.64 358.85 806.06 359.44 812.59 362.47 826.6 362.25 837.46 384.38 837.46 417.41 837.47 437.89 837.52 440.41 842.32 444.16 846.88 448.58 850.72 455.82 858.5 445.25 850.01 443.2 846.11 435.78 837.51 408.68 837.48 382.99 837.49 341.77 837.5 309.62 837.52 283.57 837.54 249.37 837.57 199.35 837.61 165 837.64 156.58 839.69 147.4 838.7 143.64 834.21 131.39 827.65 125.74 823.19 120.26 820.26 120.88 818.42 118.54 813.96 111.29 810.5 108.97 810.39 106.32 804.15 96.65 793.99 96.14 790.65 101.06 786.17 102.63 782.49 99.68 778.1 101.31 775.63 109.65 771.31 113.45 768.69 117.66 764 126.35 771.62 134.2 768.88 137.44 766.15 144.3 758.07 147.64 757.92 151.85 760.84 158.65 755.26 167.43 752.61 175.37 748.12 183 740.19 185.02 738.8 196.92 739.23 205.75 741.33 212.92 743.62 215.69 745.49 218.03 750.74 223.7 751.75 226.33 750.49 231.42 743.61 236.8 733.09 239.82 729.39 245.05 720.4 250.22 714.84 261.25 709.36 269.27 708.49 272.93 709.56 283.9 709.68 294.96 708.14 304.17 697.49 313.2 693.65 328.05 694.11 Z" id="5"/>
<path d="M 200.01 96.33 201.15 99.09 205.86 106.12 209.07 116.62 213.4 120.99 212.99 122.97 208.44 127.95 202.9 136.04 201.85 138.59 196.9 141.26 190.48 142.86 185.48 142.87 183.18 145.98 178.39 147.93 173.71 147.65 169.81 150.08 166 156.46 160.28 159.24 153.99 160.89 147.33 165.87 140.97 166.12 138.04 167.11 141.6 175.47 146.2 181.04 143.01 186.96 142.4 190.94 144.22 194.87 148.21 199.63 145.84 202.95 141.21 204.07 139.3 208.35 133.95 211.45 129.78 211.84 126.55 213.58 119.14 215.73 116.11 215.61 112.47 213.19 102.33 215.87 99.77 217.82 92.75 219.48 82.78 196.51 80.99 190.01 77.03 185.55 75.95 168.8 74.79 165.01 72.5 162.94 67.81 156.47 62.24 151.35 57.75 144.77 51.8 134.03 47.76 124.93 42.84 118.21 40.29 113.54 43.21 111.91 54.29 110.12 63.86 105.9 70.11 107.21 77.77 105.08 82.02 102.82 85.78 97.67 89.67 96.67 94.26 97.57 100.27 94.92 105.24 95.72 109.86 97.75 110.48 95.61 117.61 95.88 120.89 97.28 126.56 98.03 134.2 97.77 134.8 96.66 149.07 94.32 152.45 95.82 160.11 95.24 165.4 96.75 181.83 97.44 190.35 99.23 193.75 96.88 200.01 96.33 Z" id="6"/>
<path d="M 139.3 208.35 141.21 204.07 145.84 202.95 148.21 199.63 144.22 194.87 142.4 190.94 143.01 186.96 146.2 181.04 141.6 175.47 138.04 167.11 140.97 166.12 147.33 165.87 153.99 160.89 160.28 159.24 166 156.46 169.81 150.08 173.71 147.65 178.39 147.93 183.18 145.98 185.48 142.87 190.48 142.86 196.9 141.26 201.85 138.59 202.9 136.04 208.44 127.95 212.99 122.97 213.4 120.99 209.07 116.62 205.86 106.12 201.15 99.09 200.01 96.33 243.55 95.61 288.86 94.85 294.19 95.57 302.41 95.34 306.44 97.39 313.05 96.76 318.32 99.17 318.68 108.25 326.68 116.22 325.63 119.21 326.39 125.52 324.32 126.93 325.35 133.35 328.01 137.65 326.94 140.73 329.35 149.65 332.89 154.59 333.52 157.34 338.8 159.68 340.06 164.93 342.55 169.38 341.78 172.89 339.58 173.95 340.9 178.16 340.78 181.61 343.58 184.84 344.03 187.62 350.29 191.12 350.58 192.79 346.93 194.02 343.08 197.73 342.29 202.74 340.14 206.02 337.24 207.13 332.92 206.22 330.19 203.98 320.27 189.85 316.48 189.37 306.48 193.42 302.14 196.38 298.05 202.15 294.01 205.05 286.93 206.49 284.71 207.81 283.65 210.97 287.98 224.88 288.44 231.01 286.91 234.48 285.81 240.24 283.04 242.98 274.67 246.54 267.03 246.45 266.83 240.55 264.27 239.19 264.58 236.42 261.6 233.56 255.75 233.8 250.27 236.32 246.09 236.42 242.59 234.7 243.02 230.18 241.75 228.58 233.6 228.85 227.88 230.88 227.21 236.67 229.72 238.83 227.46 247.14 224.22 249.26 222.74 252 219.98 251.57 216.43 253.03 210.36 250.56 207.47 253.01 203.63 258.34 200.88 259.12 193.7 258.49 192.24 253.01 192.27 247.91 196.84 238.62 197.34 228.13 195.78 225.69 192.71 224.84 183.61 226.76 178.03 225.93 169.68 221.22 165.93 216.6 159.13 209.76 157.07 209.2 143.98 208.95 139.3 208.35 Z" id="7"/>
<path d="M 660.68 254.27 656.86 256.31 653.07 260.11 643.99 262.33 637.43 267.71 629.15 269.7 618.51 268.85 611.72 269.89 603.73 272.04 598.03 275.17 596.08 277.6 591.4 280.84 586.09 288.14 584.49 292.87 582.19 296.25 565 303.68 561.25 311.29 557.98 313.37 552.34 314.75 549.58 316.48 539.69 324.69 536.95 327.5 534.77 341.98 533.61 345.28 528.71 351.52 524.45 354.21 515.36 356.36 509.56 360.2 503.48 361.2 495.26 366.78 490.63 368.2 480.62 375.07 476.13 376.62 466.29 378.41 459.77 383.96 454.13 386.66 449.4 387.61 438.93 387.53 435.87 388.44 432.67 387.37 426.22 382.95 421.5 378.51 420.06 375.33 422.08 369.83 425.4 364.63 423.84 361.8 390.22 349.19 385.87 348.65 382.29 342.37 377.08 340.47 370.91 334.4 370.27 329.66 366.07 321.65 365.95 318.34 370.1 315.16 377.76 312.52 379.8 310.71 381.96 304.3 380.97 292.91 382.36 286.23 382.57 275.05 382.07 271.31 378.94 265.7 378.24 261.53 381.4 255.29 379.76 251.33 379.91 243.26 378.67 239.69 379.33 238.29 384.75 239.14 390.21 237.23 395.12 238.09 399.13 235.9 402.33 235.92 407.51 239.61 415 239.86 415.26 234.97 420.05 232.78 429.04 232.94 431.45 233.85 435.76 232.72 441.37 232.67 441.94 228.46 456.24 228.47 458.51 232.96 495.97 232.96 494.59 227.95 494.57 224.28 497.4 215.45 497.61 212.2 495.98 205.4 500.42 205.76 506.12 199.3 503.75 188.78 504.45 178.34 507.61 172.84 506.68 168.56 556.43 168.56 556.71 165.5 558.8 163.07 576.85 163.02 571.25 177.65 571 186.87 606.78 186.77 652.42 186.68 656.12 192.25 657.31 198.69 656.35 202.35 656.87 206.17 652.48 217.03 651.33 218.49 651.38 226.38 649.87 228.29 650.72 233.8 653.06 235.28 656.69 242.07 658.63 250.99 660.68 254.27 Z" id="8"/>
<path d="M 267.03 246.45 274.67 246.54 283.04 242.98 285.81 240.24 286.91 234.48 288.44 231.01 287.98 224.88 283.65 210.97 284.71 207.81 286.93 206.49 294.01 205.05 298.05 202.15 302.14 196.38 306.48 193.42 316.48 189.37 320.27 189.85 330.19 203.98 332.92 206.22 337.24 207.13 340.14 206.02 342.29 202.74 343.08 197.73 346.93 194.02 350.58 192.79 351.6 195.83 356.28 201.68 358.31 206.17 362.72 208.69 362.73 212.46 366.33 218.92 369.44 222.47 373.41 225.36 372.24 227.41 375.8 231.04 378.28 235.12 376.83 238.16 378.67 239.69 379.91 243.26 379.76 251.33 381.4 255.29 378.24 261.53 378.94 265.7 382.07 271.31 382.57 275.05 382.36 286.23 380.97 292.91 381.96 304.3 379.8 310.71 377.76 312.52 370.1 315.16 365.95 318.34 366.07 321.65 370.27 329.66 370.91 334.4 377.08 340.47 382.29 342.37 385.87 348.65 390.22 349.19 423.84 361.8 425.4 364.63 422.08 369.83 420.06 375.33 421.5 378.51 426.22 382.95 432.67 387.37 435.87 388.44 438.93 387.53 442.8 390.88 444.34 394.79 450.77 399.1 451.2 402.83 448.56 406.34 449.88 413.38 455.39 419.3 457.79 423.53 456.87 430.13 459.55 436.8 458.62 441.01 461.6 443.88 462.57 448.41 460.9 449.8 456.56 449.46 446.52 452.6 441.84 455.21 437.5 459.59 434.8 460.82 425.15 460.06 418.08 461.59 414.71 460.9 411.25 461.87 408.79 459.46 402.98 459.54 401.19 452.57 397.66 449.36 398.6 458.24 396.86 461.82 390.72 468.17 386.17 471.65 382.14 472.78 376.78 470.27 377.2 466.75 375.29 462.26 375.74 455.11 377.45 450.39 373.81 444.63 373.02 441.14 370.11 438.31 373.42 436.14 373.19 432.62 368.66 425.73 368.56 422.38 362.39 416.86 358.94 417.34 354.64 414.22 350.25 415.28 346.3 412.9 337.09 409.92 330.51 411.14 325.93 406.34 323.43 406.18 319.21 401.47 319.27 398.6 311.74 389.56 308.36 387.54 308.62 383.8 305.8 380.28 301.52 377.67 301.54 372.48 304.22 370.57 301.81 360.9 299.71 355.12 294.86 351.52 293.94 347.96 290.4 345.09 280.81 343.52 273.38 344.55 267.58 343.33 264.31 347.63 252.89 348.55 249.03 348.07 238.91 349.82 228.56 348.51 222.53 343.83 225.49 339.06 223.22 331.15 226.67 326.79 223.25 320.1 230.36 319.01 232.16 314.03 233.87 312.2 239.36 311.4 246.95 307.54 249.49 308.69 254.53 308.3 256.56 306.99 256.75 297.7 258.31 289.57 262 279.24 260.89 276.67 256.65 274.47 255.21 271.57 258.48 265.87 259.25 262.71 268.04 258.77 267.03 246.45 Z" id="9"/>
<path d="M 686.14 401.07 681.78 402 675.19 399.66 669.38 401.13 653.06 402.22 651.1 405.17 649.67 410.4 649.88 414.06 645.28 418.81 644.02 427.32 646.8 430.25 646.71 434.55 640.11 437.59 633.34 437.37 632.19 439.07 628.04 439.81 620.56 442.97 617.05 443.7 611.28 450.21 607.77 450.82 604.07 453 604.16 456.39 595.82 456.3 585.6 454.58 578.03 450.79 569.87 447.97 563.7 443.84 561.3 444.69 548.86 439.48 544.25 443.93 535.4 442.9 532.95 445.4 527.31 442.29 523.63 444.97 519.09 445.74 513.27 442.51 509.65 442.99 507.81 446.22 502.43 450.66 498.83 452.48 491.18 452.02 485.22 455.39 485.78 451.27 488.27 444.94 486.02 440.8 478.88 438.71 471.37 432.08 457.79 423.53 455.39 419.3 449.88 413.38 448.56 406.34 451.2 402.83 450.77 399.1 444.34 394.79 442.8 390.88 438.93 387.53 449.4 387.61 454.13 386.66 459.77 383.96 466.29 378.41 476.13 376.62 480.62 375.07 490.63 368.2 495.26 366.78 503.48 361.2 509.56 360.2 515.36 356.36 524.45 354.21 528.71 351.52 533.61 345.28 534.77 341.98 536.95 327.5 539.69 324.69 549.58 316.48 552.34 314.75 557.98 313.37 561.25 311.29 565 303.68 582.19 296.25 584.49 292.87 586.09 288.14 591.4 280.84 596.08 277.6 598.03 275.17 603.73 272.04 611.72 269.89 618.51 268.85 629.15 269.7 637.43 267.71 643.99 262.33 653.07 260.11 656.86 256.31 660.68 254.27 662.15 259.43 662.4 265.02 660.87 269.98 658.85 283.21 657.25 287.33 656.09 304.36 656.73 309.65 656.02 315.03 652.87 323.38 655.35 328.31 656.87 337.01 658.47 339.54 664.69 345.73 666.17 349.33 669.87 353.6 672.45 353.99 676.57 357.21 679.78 367.95 679.33 370.04 686.44 385.46 683.78 392.65 685.97 397.09 686.14 401.07 Z" id="10"/>
<path d="M 222.53 343.83 228.56 348.51 238.91 349.82 249.03 348.07 252.89 348.55 264.31 347.63 267.58 343.33 273.38 344.55 280.81 343.52 290.4 345.09 293.94 347.96 294.86 351.52 299.71 355.12 301.81 360.9 304.22 370.57 301.54 372.48 301.52 377.67 305.8 380.28 308.62 383.8 308.36 387.54 311.74 389.56 319.27 398.6 315.79 404.99 312.37 406.52 309.87 409.72 300.78 415.37 297.98 418.3 294.29 424.39 290.8 426.25 286.83 425.17 280.19 424.91 276.73 422.59 274.12 431.15 271.7 436.25 266.09 443.85 266.2 448.3 263.66 454.6 261.92 456.09 250.46 458.59 241.46 461.95 239.07 464.27 238.08 468.62 241.33 475.24 239.31 486.53 233.57 490.01 222.98 493.57 219.98 496.67 216.85 503.68 214.07 502.53 211.97 499.25 206.12 496.25 198.17 496.87 194.31 495.71 190.57 489.58 184.38 481.39 182.19 479.82 177.78 480.41 173.43 483.38 170.3 487.59 166.29 490.52 163.2 486.72 157.72 482.44 155.97 476.75 149.57 476.37 137.73 474.24 136.77 463.96 137.86 454.4 137.83 448.01 139.43 445.06 141.2 433.34 141.33 424.87 140.05 420.46 134.3 412.07 133.77 409.74 136.26 406.33 135.18 403.24 125.72 392.42 121.61 389.1 120.34 386.6 120.22 382.25 118.18 377.68 120.36 375.28 122.93 377.44 128.5 380.16 131.7 384.86 133.63 383.99 140.29 385.95 147.04 385.51 152.62 387.37 160.4 381.38 164.94 379.43 171.72 380.35 176.55 382.53 182.18 387.95 186.51 389.89 190.12 385.23 190.52 379.51 187.67 376.84 186.8 373.92 187.77 370.77 185.85 363.47 188.24 356.54 187.48 346.76 191.93 347.15 198.74 346.09 200.09 344.43 206.04 343.19 211.09 343.63 212.17 340.6 222.53 343.83 Z" id="11"/>
<path d="M 123.06 609.35 111.3 607.76 106.45 600.57 105.21 597.62 106.13 593.21 105.14 591.02 93.2 588.41 88.43 591.2 81.48 593.9 78.16 593.87 75.37 591.95 61.78 589.21 56.64 591.33 55.31 583.29 63.15 576.93 64.57 571.28 71.33 567.24 83.14 553.68 84.04 550.25 82.02 544.65 82.79 543.01 98.19 529.17 101.68 529.9 103.72 527.94 110.13 528.59 116.29 523.09 119.25 514.33 123.88 511.73 127.89 506.44 132.09 495.45 132.74 490.96 136.05 485.3 137.73 474.24 149.57 476.37 155.97 476.75 157.72 482.44 163.2 486.72 166.29 490.52 170.3 487.59 173.43 483.38 177.78 480.41 182.19 479.82 184.38 481.39 190.57 489.58 194.31 495.71 198.17 496.87 206.12 496.25 211.97 499.25 214.07 502.53 216.85 503.68 216.57 511.72 219.95 523.65 218.77 525.35 213.75 526.23 209.46 528.73 203.03 534.53 203.38 540.95 205.82 548.75 209.6 555.54 210.8 562.91 209.86 566.82 213.04 573.2 222.62 580.76 221.16 585.44 214.12 588.55 209.86 588.14 201.11 595.04 194.82 597.2 192.26 597.16 184.57 594.04 181.75 594.38 180.33 598.42 175.89 607.12 173.89 609.89 170.53 611.11 156.38 609.37 149.39 608.02 141.96 609.25 135.07 608.51 129.92 607.06 123.06 609.35 Z" id="12"/>
<path d="M 92.75 219.48 99.77 217.82 102.33 215.87 112.47 213.19 116.11 215.61 119.14 215.73 126.55 213.58 129.78 211.84 133.95 211.45 139.3 208.35 143.98 208.95 157.07 209.2 159.13 209.76 165.93 216.6 169.68 221.22 178.03 225.93 183.61 226.76 192.71 224.84 195.78 225.69 197.34 228.13 196.84 238.62 192.27 247.91 192.24 253.01 193.7 258.49 191.06 259.82 186.76 258.14 175.38 257.81 168.03 262.91 169.37 267.88 172.63 271.33 174.86 277.61 174.51 281.98 169.05 287 158.85 290.13 156.5 294.06 160.18 297.15 159.38 300.77 155.85 303.44 157.42 305.6 160.77 306.58 162 311.18 163.99 314.33 160.67 319.97 156.53 331.07 159.05 332.64 161.49 337.67 166.52 337.47 169.42 340.99 177.58 341.5 185.75 347.57 187.48 346.76 188.24 356.54 185.85 363.47 187.77 370.77 186.8 373.92 187.67 376.84 190.52 379.51 190.12 385.23 186.51 389.89 182.18 387.95 176.55 382.53 171.72 380.35 164.94 379.43 160.4 381.38 152.62 387.37 147.04 385.51 140.29 385.95 133.63 383.99 131.7 384.86 128.5 380.16 122.93 377.44 120.36 375.28 118.18 377.68 115.19 373.18 114.45 370.03 110.95 366.18 107.13 360.1 107.76 354.28 104.59 348.85 99.48 342.86 101.11 336.78 97.63 327.26 97.68 323.15 95.92 318.49 98.57 317.17 102.48 310.32 106.34 307.64 117.78 306.88 119.16 295.32 123.48 288.72 127.73 286.64 126.36 277.51 124.33 274.62 119.99 274.5 114.29 270.83 110.58 270.28 108.72 262.93 111.33 261.42 110.48 253.66 104.52 244.35 99.44 234.22 98.88 231.27 92.75 219.48 Z" id="13"/>
<path d="M 110.58 270.28 114.29 270.83 119.99 274.5 124.33 274.62 126.36 277.51 127.73 286.64 123.48 288.72 119.16 295.32 117.78 306.88 106.34 307.64 102.48 310.32 98.57 317.17 95.92 318.49 94.46 317.39 86.45 303.27 88.2 302.05 92.29 294.63 94.6 294.28 100.35 285.3 104.59 283.22 105.63 281.44 111.17 281.45 112.97 275.78 110.58 270.28 Z" id="14"/>
<path d="M 405.66 591.68 403.86 596.5 401.79 598.26 396.35 599.51 396.25 609.64 394.43 612.7 386 618.61 374.25 621.15 370.24 626.38 367.15 628.46 366.03 634.67 363.65 639.28 359.21 637.85 349.81 632.3 347 629.87 345.04 623.96 341.28 619.11 338.36 618.55 333.35 620.71 325.41 617.77 321.18 619.18 312.35 619.21 310.38 619.88 310.59 609.32 314.19 590.23 313.2 581.33 313.77 577.77 314.59 572.39 314.51 564.69 313.28 558.94 312.17 542.57 312.27 538.81 306.37 536.31 303.64 533.97 299.59 527.74 299.72 525.06 303.79 521.59 304.32 514.84 301.62 508.25 303.13 505.94 310.77 500.16 313.31 493.97 317.16 488.46 316.95 484.5 310.84 478.57 310 474.63 306.03 471.79 300.14 465.3 298.71 458.42 296.79 457.45 283.45 454.97 278.84 456.78 273.75 457.44 268.85 456.68 263.66 454.6 266.2 448.3 266.09 443.85 271.7 436.25 274.12 431.15 276.73 422.59 280.19 424.91 286.83 425.17 290.8 426.25 294.29 424.39 297.98 418.3 300.78 415.37 309.87 409.72 312.37 406.52 315.79 404.99 319.27 398.6 319.21 401.47 323.43 406.18 325.93 406.34 330.51 411.14 337.09 409.92 346.3 412.9 350.25 415.28 354.64 414.22 358.94 417.34 362.39 416.86 368.56 422.38 368.66 425.73 373.19 432.62 373.42 436.14 370.11 438.31 373.02 441.14 373.81 444.63 377.45 450.39 375.74 455.11 375.29 462.26 377.2 466.75 376.78 470.27 382.14 472.78 386.17 471.65 390.72 468.17 396.86 461.82 398.6 458.24 397.66 449.36 401.19 452.57 402.98 459.54 408.79 459.46 411.25 461.87 414.71 460.9 418.08 461.59 425.15 460.06 434.8 460.82 437.5 459.59 441.84 455.21 446.52 452.6 456.56 449.46 460.9 449.8 462.57 448.41 461.6 443.88 458.62 441.01 459.55 436.8 456.87 430.13 457.79 423.53 471.37 432.08 478.88 438.71 486.02 440.8 488.27 444.94 485.78 451.27 485.22 455.39 481.88 457.32 479.49 460.41 477.21 468.45 470.91 471.54 470.54 475.91 467.7 477.83 463.9 483.98 463.29 487.39 464.64 491.3 460.72 497.3 455.4 501.94 454.44 507.31 447.02 512.25 442.07 514.71 436.54 520.04 435.29 525.27 429.31 532.54 427.94 537.44 418.62 545.95 419.7 552.51 415.4 558.22 412.48 560.39 411.31 564.5 413.62 572.44 412.1 575.19 407.16 577.68 405.28 580.21 406.34 584.81 405.15 588.61 405.66 591.68 Z" id="15"/>
<path d="M 193.7 258.49 200.88 259.12 203.63 258.34 207.47 253.01 210.36 250.56 216.43 253.03 219.98 251.57 222.74 252 224.22 249.26 227.46 247.14 229.72 238.83 227.21 236.67 227.88 230.88 233.6 228.85 241.75 228.58 243.02 230.18 242.59 234.7 246.09 236.42 250.27 236.32 255.75 233.8 261.6 233.56 264.58 236.42 264.27 239.19 266.83 240.55 267.03 246.45 268.04 258.77 259.25 262.71 258.48 265.87 255.21 271.57 256.65 274.47 260.89 276.67 262 279.24 258.31 289.57 256.75 297.7 256.56 306.99 254.53 308.3 249.49 308.69 246.95 307.54 239.36 311.4 233.87 312.2 232.16 314.03 230.36 319.01 223.25 320.1 226.67 326.79 223.22 331.15 225.49 339.06 222.53 343.83 212.17 340.6 211.09 343.63 206.04 343.19 200.09 344.43 198.74 346.09 191.93 347.15 187.48 346.76 185.75 347.57 177.58 341.5 169.42 340.99 166.52 337.47 161.49 337.67 159.05 332.64 156.53 331.07 160.67 319.97 163.99 314.33 162 311.18 160.77 306.58 157.42 305.6 155.85 303.44 159.38 300.77 160.18 297.15 156.5 294.06 158.85 290.13 169.05 287 174.51 281.98 174.86 277.61 172.63 271.33 169.37 267.88 168.03 262.91 175.38 257.81 186.76 258.14 191.06 259.82 193.7 258.49 Z" id="16"/>
<path d="M 310.38 619.88 311.86 628.67 310.92 634.62 309.62 636.49 310.6 642.3 312.38 646.83 312.23 659.58 316.57 664.92 319.89 666.68 318.76 669.25 322.37 675.73 322.33 681.73 325.2 685.57 324.53 688.78 328.05 694.11 313.2 693.65 304.17 697.49 294.96 708.14 283.9 709.68 272.93 709.56 269.27 708.49 261.25 709.36 250.22 714.84 245.05 720.4 239.82 729.39 236.8 733.09 231.42 743.61 226.33 750.49 223.7 751.75 218.03 750.74 215.69 745.49 212.92 743.62 205.75 741.33 196.92 739.23 185.02 738.8 183 740.19 175.37 748.12 167.43 752.61 158.65 755.26 151.85 760.84 147.64 757.92 144.3 758.07 137.44 766.15 134.2 768.88 126.35 771.62 117.66 764 120.62 759.96 118.74 754.02 119.63 747.64 124.07 739.77 124.67 736.43 122.16 730.85 121.83 717.8 119.63 714.4 114.9 711.2 113.45 704.5 107.1 704.1 106.09 701.22 101.89 700.4 100.9 698.38 104.84 693.95 102.26 689.74 104.21 685.16 103.86 679.44 105.79 676.3 109.74 674.29 121.64 666.24 124.7 662.76 127.3 653.22 130.55 647.42 129.56 637.08 125.65 632.34 126.06 630.12 124.35 624.52 126.91 616.47 123.06 609.35 129.92 607.06 135.07 608.51 141.96 609.25 149.39 608.02 156.38 609.37 170.53 611.11 173.89 609.89 175.89 607.12 180.33 598.42 181.75 594.38 184.57 594.04 192.26 597.16 194.82 597.2 201.11 595.04 209.86 588.14 214.12 588.55 221.16 585.44 222.62 580.76 225.54 581.46 235.62 579.93 238.85 585.72 239.81 593.47 241.89 595.62 247.35 596.33 248.28 603.38 249.88 604.02 254.96 601.18 258.22 597.36 263.52 594.46 274.45 582.93 279.68 580.33 284.65 583.43 288.65 583.01 292.45 578.48 295.53 576.78 305.1 577.48 309.52 578.41 313.77 577.77 313.2 581.33 314.19 590.23 310.59 609.32 310.38 619.88 Z" id="17"/>
<path d="M 216.85 503.68 219.98 496.67 222.98 493.57 233.57 490.01 239.31 486.53 241.33 475.24 238.08 468.62 239.07 464.27 241.46 461.95 250.46 458.59 261.92 456.09 263.66 454.6 268.85 456.68 273.75 457.44 278.84 456.78 283.45 454.97 296.79 457.45 298.71 458.42 300.14 465.3 306.03 471.79 310 474.63 310.84 478.57 316.95 484.5 317.16 488.46 313.31 493.97 310.77 500.16 303.13 505.94 301.62 508.25 304.32 514.84 303.79 521.59 299.72 525.06 299.59 527.74 303.64 533.97 306.37 536.31 312.27 538.81 312.17 542.57 313.28 558.94 314.51 564.69 314.59 572.39 313.77 577.77 309.52 578.41 305.1 577.48 295.53 576.78 292.45 578.48 288.65 583.01 284.65 583.43 279.68 580.33 274.45 582.93 263.52 594.46 258.22 597.36 254.96 601.18 249.88 604.02 248.28 603.38 247.35 596.33 241.89 595.62 239.81 593.47 238.85 585.72 235.62 579.93 225.54 581.46 222.62 580.76 213.04 573.2 209.86 566.82 210.8 562.91 209.6 555.54 205.82 548.75 203.38 540.95 203.03 534.53 209.46 528.73 213.75 526.23 218.77 525.35 219.95 523.65 216.57 511.72 216.85 503.68 Z" id="18"/>
</g>
</svg>